<?xml version="1.0" standalone="no"?>
<!DOCTYPE svg PUBLIC "-//W3C//DTD SVG 1.1//EN" "http://www.w3.org/Graphics/SVG/1.1/DTD/svg11.dtd" >
<svg>
<metadata>
Created by FontForge 20090914 at Thu Dec  3 14:47:59 2015
 By www-data
FreeUniveral (c) Stephen Wilson 2009

Original Font Sil-Sophia
Copyright (c) SIL International, 1994-2008.
</metadata>
<defs>
<font id="FreeUniversal-Italic" horiz-adv-x="572" >
  <font-face 
    font-family="FreeUniversal"
    font-weight="500"
    font-style="italic"
    font-stretch="normal"
    units-per-em="1024"
    panose-1="2 0 6 3 0 0 0 0 0 0"
    ascent="819"
    descent="-205"
    x-height="512"
    cap-height="739"
    bbox="-113 -264 1309 1065"
    underline-thickness="20"
    underline-position="-136"
    slope="-11"
    unicode-range="U+0020-U+FB02"
  />
<missing-glyph horiz-adv-x="374" 
d="M34 0v682h272v-682h-272zM68 34h204v614h-204v-614z" />
    <glyph glyph-name=".notdef" horiz-adv-x="374" 
d="M34 0v682h272v-682h-272zM68 34h204v614h-204v-614z" />
    <glyph glyph-name="space" unicode=" " horiz-adv-x="307" 
 />
    <glyph glyph-name="exclam" unicode="!" horiz-adv-x="377" 
d="M370 739l-175 -566h-62l128 566h109zM191 97l-26 -97h-103l27 97h102z" />
    <glyph glyph-name="quotedbl" unicode="&#x22;" horiz-adv-x="462" 
d="M518 739l-102 -295h-62l56 295h108zM307 739l-102 -295h-62l56 295h108z" />
    <glyph glyph-name="numbersign" unicode="#" horiz-adv-x="763" 
d="M740 525l-21 -70h-146l-43 -140h145l-22 -70h-144l-73 -245h-76l73 245h-133l-74 -245h-75l73 245h-145l21 70h146l43 140h-145l22 70h144l66 214h77l-67 -214h134l66 214h76l-66 -214h144zM499 455h-134l-44 -140h135z" />
    <glyph glyph-name="dollar" unicode="$" 
d="M596 601c0 -22 -2.99902 -43.333 -8.99902 -64h-104c6.66699 24 10 42.667 10 56c0 20 -6.16699 33.167 -18.5 39.5s-29.833 9.5 -52.5 9.5l-60 -224l33.5 -7.5c4.33301 -1 14.5 -3.66699 30.5 -8s26.333 -8 31 -11s12.834 -7.33301 24.501 -13s19.667 -11.667 24 -18
l16 -23c6.33301 -9 10.5 -19 12.5 -30s3 -23.5 3 -37.5c0 -82.667 -27.5 -149.5 -82.5 -200.5s-124.167 -78.5 -207.5 -82.5l-26 -93h-52l26 92c-54 0 -97.167 11.833 -129.5 35.5s-48.5 61.167 -48.5 112.5c0 22.667 4 49.334 12 80.001h103
c-5.33301 -19.333 -8 -38.666 -8 -57.999c0 -54 31.333 -81 94 -81l69 255c-8.66699 2.66699 -17.5 5 -26.5 7s-18 4.5 -27 7.5l-26 8.5c-8.33301 2.66699 -16.5 6.16699 -24.5 10.5s-15.333 8.83301 -22 13.5s-12.834 10.167 -18.501 16.5s-10.5 13.166 -14.5 20.499
s-7.16699 15.666 -9.5 24.999s-3.5 19.333 -3.5 30c0 76 27.5 138.667 82.5 188s120.5 74 196.5 74l22 83h52l-22 -82c45.333 0 81.666 -10.833 108.999 -32.5s41 -54.5 41 -98.5zM370.001 642c-44 0 -76.001 -8 -96.001 -24s-35.667 -45 -47 -87c-4 -17.333 -6 -30 -6 -38
c0 -9.33301 1.83301 -17.333 5.5 -24s9.33398 -12.167 17.001 -16.5s14.667 -7.5 21 -9.5s15 -4.33301 26 -7s18.5 -4.66699 22.5 -6zM428 248c0 14 -2.66797 25.668 -8.00098 35.001s-12.166 16.166 -20.499 20.499s-18 8.33301 -29 12s-22.167 6.83398 -33.5 9.50098
l-67 -249c51.333 0.666992 90.5 16.167 117.5 46.5s40.5 72.166 40.5 125.499z" />
    <glyph glyph-name="percent" unicode="%" horiz-adv-x="950" 
d="M914 193c0 -58.667 -16.167 -106.167 -48.5 -142.5s-77.166 -54.5 -134.499 -54.5s-102 18.167 -134 54.5s-48 83.833 -48 142.5c0 58 16 105.167 48 141.5s76.667 54.5 134 54.5s102.166 -18.167 134.499 -54.5s48.5 -83.5 48.5 -141.5zM749 754l-437 -768h-70l436 768
h71zM432 547c0 -58.667 -16.167 -106.167 -48.5 -142.5s-77.166 -54.5 -134.499 -54.5s-102 18.167 -134 54.5s-48 83.833 -48 142.5c0 58 16 105.167 48 141.5s76.667 54.5 134 54.5s102.166 -18.167 134.499 -54.5s48.5 -83.5 48.5 -141.5zM826 193
c0 40 -6.66699 71.667 -20 95s-38.333 35 -75 35s-61.667 -11.667 -75 -35s-20 -55 -20 -95s6.66699 -71.667 20 -95s38.333 -35 75 -35s61.667 11.667 75 35s20 55 20 95zM344 547c0 40 -6.66699 71.667 -20 95s-38.333 35 -75 35s-61.667 -11.667 -75 -35s-20 -55 -20 -95
s6.66699 -71.5 20 -94.5s38.333 -34.5 75 -34.5s61.667 11.5 75 34.5s20 54.5 20 94.5z" />
    <glyph glyph-name="ampersand" unicode="&#x26;" horiz-adv-x="784" 
d="M711 432c-16.667 -60 -34.5 -111.333 -53.5 -154s-44.833 -85.334 -77.5 -128.001c24.667 -41.333 63.667 -91.333 117 -150h-137c-20 18.667 -40 43 -60 73c-35.333 -25.333 -77.166 -46 -125.499 -62s-93.833 -24 -136.5 -24c-55.333 0 -102.333 14.5 -141 43.5
s-58 70.167 -58 123.5c0 122 76 214.333 228 277c-28.667 52 -43 92.667 -43 122c0 56 24.667 103.5 74 142.5s102.666 58.5 159.999 58.5c40 0 75.333 -8.66699 106 -26s46 -44.666 46 -81.999c0 -22.667 -5 -44.334 -15 -65.001s-21.5 -38 -34.5 -52
s-30.833 -28.667 -53.5 -44s-41.167 -26.833 -55.5 -34.5l-57.5 -29.5c16.667 -31.333 38.667 -66.666 66 -105.999l72 -101c16.667 29.333 29.167 54.333 37.5 75s14.333 41.5 18 62.5l14.5 80.5h109zM521 620c0 18 -7.33105 32 -21.998 42s-31.334 15 -50.001 15
c-34.667 0 -63.334 -9.5 -86.001 -28.5s-34 -45.5 -34 -79.5c0 -26.667 10 -58 30 -94c108 42.667 162 91 162 145zM464.002 135c-54 60 -108.667 139.332 -164 237.999c-34 -7.33301 -68.167 -30.666 -102.5 -69.999s-51.5 -76 -51.5 -110c0 -32.667 11.5 -60.667 34.5 -84
s50.833 -35 83.5 -35c75.333 0 142 20.333 200 61z" />
    <glyph glyph-name="quotesingle" unicode="'" horiz-adv-x="377" 
d="M370 739l-103 -295h-61l55 295h109z" />
    <glyph glyph-name="parenleft" unicode="(" horiz-adv-x="368" 
d="M406 754c-80.667 -128.667 -141.501 -253.668 -182.501 -375.001s-61.5 -250.666 -61.5 -387.999c0 -48.667 1.66699 -90.667 5 -126h-66c-18.667 66.667 -28 136.667 -28 210c0 120 23.833 238 71.5 354s112.834 224.333 195.501 325h66z" />
    <glyph glyph-name="parenright" unicode=")" horiz-adv-x="368" 
d="M318 544c0 -120 -23.833 -238.166 -71.5 -354.499s-112.5 -224.5 -194.5 -324.5h-65c80 128.667 140.5 253.667 181.5 375s61.5 250.666 61.5 387.999c0 49.333 -1.66699 91.333 -5 126h66c18 -65.333 27 -135.333 27 -210z" />
    <glyph glyph-name="asterisk" unicode="*" horiz-adv-x="672" 
d="M613 500l-169 21l104 -137l-74 -41l-65 151l-66 -151l-75 41l104 137l-169 -21v84l169 -22l-104 137l75 40l66 -149l65 149l74 -40l-104 -137l169 22v-84z" />
    <glyph glyph-name="plus" unicode="+" horiz-adv-x="1024" 
d="M819 275h-275v-275h-64v275h-275v64h275v275h64v-275h275v-64z" />
    <glyph glyph-name="comma" unicode="," horiz-adv-x="282" 
d="M196 126l-182 -256h-71l130 256h123z" />
    <glyph glyph-name="hyphen" unicode="-" horiz-adv-x="327" 
d="M294 292l-23 -84h-245l22 84h246z" />
    <glyph glyph-name="period" unicode="." horiz-adv-x="282" 
d="M173 126l-34 -126h-110l33 126h111z" />
    <glyph glyph-name="slash" unicode="/" horiz-adv-x="406" 
d="M359 754l-241 -807h-71l242 807h70z" />
    <glyph glyph-name="zero" unicode="0" 
d="M586 583c0 -48.667 -11.001 -115.002 -33.001 -199.002c-10.667 -40 -21.5 -76 -32.5 -108s-26.333 -67 -46 -105s-41 -69.667 -64 -95s-51.667 -46.666 -86 -63.999s-71.833 -26 -112.5 -26c-110 0 -165 60.667 -165 182c0 50.667 12 122.667 36 216
c10.667 40 21.334 75.333 32.001 106s25.5 63.334 44.5 98.001s39.667 63.5 62 86.5s50.5 42 84.5 57s71.333 22.5 112 22.5c112 0 168 -57 168 -171zM484.999 563.998c0 69.333 -30.334 104.003 -91.001 104.003c-16.667 0 -32.167 -2.5 -46.5 -7.5
s-27.166 -11.833 -38.499 -20.5s-22.166 -18.834 -32.499 -30.501s-19.166 -24.5 -26.499 -38.5s-14.5 -28.5 -21.5 -43.5s-12.833 -30.167 -17.5 -45.5l-14.5 -45.5c-5 -15 -8.83301 -29.167 -11.5 -42.5c-1.33301 -4.66699 -2.33301 -8 -3 -10c-24 -92 -36 -159 -36 -201
c0 -74 29.333 -111 88 -111c18.667 0 36.667 4.33301 54 13s32.166 18.667 44.499 30s24.666 27.333 36.999 48s22 38.667 29 54s14.833 35.666 23.5 60.999s14.667 43.666 18 54.999s8 28.333 14 51c20.667 80 31 140 31 180z" />
    <glyph glyph-name="one" unicode="1" 
d="M515 739l-199 -739.001h-95l166 616c-64 -46 -125 -74.333 -183 -85l23 85c32.667 10 66.167 26.333 100.5 49s62.833 47.334 85.5 74.001h102z" />
    <glyph glyph-name="two" unicode="2" 
d="M593 604c0 -27.333 -4.16699 -54.3359 -12.5 -81.0029s-18.666 -51.167 -30.999 -73.5s-29.333 -45.666 -51 -69.999s-42.167 -45.666 -61.5 -63.999s-44 -39.166 -74 -62.499l-77 -58l-82 -58.5l-78 -56.5h333l-22 -80h-445l25 95
c84.667 59.333 151.167 107.5 199.5 144.5s95.833 77.5 142.5 121.5s79.834 84.833 99.501 122.5s29.5 75.834 29.5 114.501c0 47.333 -29 71 -87 71c-38.667 0 -69.334 -11.333 -92.001 -34s-42 -54.667 -58 -96h-105c49.333 143.333 142.333 215 279 215
c49.333 0 89.666 -12.833 120.999 -38.5s47 -62.834 47 -111.501z" />
    <glyph glyph-name="three" unicode="3" 
d="M598 607c0 -41.333 -14.8311 -82.502 -44.498 -123.502s-64.834 -72.833 -105.501 -95.5c12.667 -10.667 24.5 -20 35.5 -28s20 -18.167 27 -30.5s10.5 -26.166 10.5 -41.499c0 -86 -30.5 -157.833 -91.5 -215.5s-134.833 -86.5 -221.5 -86.5
c-54.667 0 -99.667 12.5 -135 37.5s-53 63.167 -53 114.5c0 18 2.66699 37 8 57h108c-2 -12.667 -3 -25 -3 -37c0 -62 32.667 -93 98 -93c52 0 95.5 19.5 130.5 58.5s52.5 84.5 52.5 136.5c0 56 -47.333 84 -142 84l22 82c108 0 174 46.667 198 140
c2.66699 10 4 20.333 4 31c0 26 -10.333 45.5 -31 58.5s-45 19.5 -73 19.5c-64 0 -114.333 -42.667 -151 -128h-104c24.667 64 60.167 114.5 106.5 151.5s102.5 55.5 168.5 55.5c51.333 0 95.166 -12.167 131.499 -36.5s54.5 -61.166 54.5 -110.499z" />
    <glyph glyph-name="four" unicode="4" 
d="M578 739l-127 -474h91l-24 -85h-91l-48 -180h-95l48 180h-325l30 108l428 451h113zM452 627l-339 -362h242z" />
    <glyph glyph-name="five" unicode="5" 
d="M598 739l-23 -84.9971h-291l-75 -232c22 15.333 39.5 28.166 52.5 38.499s28.5 18.166 46.5 23.499s41 8 69 8c48 0 84.333 -14.833 109 -44.5s37 -68.834 37 -117.501c0 -50 -13.833 -101.5 -41.5 -154.5s-65.167 -97.667 -112.5 -134s-96.333 -54.5 -147 -54.5
c-24.667 0 -47.834 2.16699 -69.501 6.5s-42.667 11.5 -63 21.5s-36.333 24.5 -48 43.5s-17.5 41.833 -17.5 68.5c0 19.333 2.33301 37 7 53h107c-2.66699 -10 -4 -21.667 -4 -35c0 -26.667 9.33301 -46 28 -58s42 -18 70 -18c54.667 0 99.834 28.333 135.501 85
s53.5 114 53.5 172c0 60 -29 90 -87 90c-57.333 0 -112.333 -35.667 -165 -107h-92l129 430h392z" />
    <glyph glyph-name="six" unicode="6" 
d="M588 615c0 -10.667 -1.33203 -28.002 -3.99902 -52.002h-99c2.66699 12.667 4 25.667 4 39c0 48.667 -27.667 73 -83 73c-31.333 0 -60.666 -11 -87.999 -33s-50.5 -50 -69.5 -84s-34.5 -67.5 -46.5 -100.5s-21.333 -64.833 -28 -95.5c24 24 42.333 41.333 55 52
s30.167 20.5 52.5 29.5s47.5 13.5 75.5 13.5c112 0 168 -49.333 168 -148c0 -88 -29 -163.833 -87 -227.5s-130.667 -95.5 -218 -95.5c-60.667 0 -107.334 10.333 -140.001 31s-49 59.334 -49 116.001c0 48.667 13.333 121.334 40 218.001
c10.667 40.667 22.167 77.667 34.5 111s28.833 69 49.5 107s43.167 69.833 67.5 95.5s54.333 47 90 64s74.5 25.5 116.5 25.5c51.333 0 90.666 -10.667 117.999 -32s41 -57 41 -107zM419.001 291.998c0 57.333 -32.666 86 -97.999 86
c-56.667 0 -101.334 -22.833 -134.001 -68.5s-49 -98.167 -49 -157.5c0 -58 33 -87 99 -87c56.667 0 101.167 22.833 133.5 68.5s48.5 98.5 48.5 158.5z" />
    <glyph glyph-name="seven" unicode="7" 
d="M641 739c-16.667 -66 -26 -100 -28 -102l-411 -637h-113l437 657h-363l22 82h456z" />
    <glyph glyph-name="eight" unicode="8" 
d="M596 618c0 -46.667 -17.668 -91.8291 -53.001 -135.496s-76 -73.834 -122 -90.501c28.667 -10.667 51.834 -29.834 69.501 -57.501s26.5 -57.167 26.5 -88.5c0 -77.333 -30.833 -139.833 -92.5 -187.5s-132.167 -71.5 -211.5 -71.5c-33.333 0 -64.166 4.5 -92.499 13.5
s-53 25 -74 48s-31.5 51.5 -31.5 85.5c0 55.333 20.333 107.666 61 156.999s88 83 142 101c-23.333 10.667 -42 28.167 -56 52.5s-21 49.5 -21 75.5c0 46.667 14.167 88.167 42.5 124.5s63.333 63.666 105 81.999s85.167 27.5 130.5 27.5
c47.333 0 88.666 -11.5 123.999 -34.5s53 -56.833 53 -101.5zM496.999 592.005c0 28.667 -9.16602 49.667 -27.499 63s-42.5 20 -72.5 20c-44.667 0 -83.334 -15 -116.001 -45s-49 -67.333 -49 -112c0 -27.333 9.66699 -48.833 29 -64.5s43 -23.5 71 -23.5
c44 0 82.5 16 115.5 48s49.5 70 49.5 114zM422 255.005c0 32.667 -10.333 56.833 -31 72.5s-47.667 23.5 -81 23.5c-53.333 0 -98.5 -18.5 -135.5 -55.5s-55.5 -82.167 -55.5 -135.5c0 -62.667 38 -94 114 -94c54 0 99 18 135 54s54 81 54 135z" />
    <glyph glyph-name="nine" unicode="9" 
d="M597 606c0 -16.667 -1.16895 -34.8311 -3.50195 -54.498s-5.5 -38.167 -9.5 -55.5l-13 -54.5c-4.66699 -19 -9.33398 -36.833 -14.001 -53.5c-10.667 -40.667 -22.167 -77.667 -34.5 -111s-28.666 -68.833 -48.999 -106.5s-42.666 -69.334 -66.999 -95.001
s-54.333 -47 -90 -64s-74.5 -25.5 -116.5 -25.5c-52 0 -91.5 10.5 -118.5 31.5s-40.5 56.5 -40.5 106.5c0 17.333 1 34.666 3 51.999h98c-2.66699 -11.333 -4 -24.333 -4 -39c0 -48 28 -72 84 -72c30.667 0 59.834 10.833 87.501 32.5s50.834 49.667 69.501 84
s34.167 67.833 46.5 100.5s21.833 64.334 28.5 95.001c-24.667 -24 -43.334 -41.333 -56.001 -52s-30.167 -20.334 -52.5 -29.001s-47.5 -13 -75.5 -13c-112 0 -168 49 -168 147c0 88 29.167 164 87.5 228s131.5 96 219.5 96c60 0 106.333 -10.5 139 -31.5
s49 -59.833 49 -116.5zM489.998 588.003c0 58 -33.001 87.001 -99.001 87.001c-57.333 0 -102 -22.833 -134 -68.5s-48 -98.834 -48 -159.501c0 -57.333 32.667 -86 98 -86c56.667 0 101.334 22.833 134.001 68.5s49 98.5 49 158.5z" />
    <glyph glyph-name="colon" unicode=":" horiz-adv-x="282" 
d="M276 512l-33 -126h-111l34 126h110zM173 126l-34 -126h-110l33 126h111z" />
    <glyph glyph-name="semicolon" unicode=";" horiz-adv-x="282" 
d="M276 512l-33 -126h-111l34 126h110zM196 126l-182 -256h-71l130 256h123z" />
    <glyph glyph-name="less" unicode="&#x3c;" horiz-adv-x="1024" 
d="M819 40l-614 235v64l614 235v-63l-549 -204l549 -204v-63z" />
    <glyph glyph-name="equal" unicode="=" horiz-adv-x="1024" 
d="M819 369h-614v63h614v-63zM819 182h-614v64h614v-64z" />
    <glyph glyph-name="greater" unicode="&#x3e;" horiz-adv-x="1024" 
d="M819 275l-614 -235v63l549 204l-549 204v63l614 -235v-64z" />
    <glyph glyph-name="question" unicode="?" horiz-adv-x="529" 
d="M558 611c0 -32.667 -9.16699 -63.4961 -27.5 -92.4961s-40.833 -53.833 -67.5 -74.5s-53.667 -39.834 -81 -57.501s-51.833 -35.334 -73.5 -53.001s-34.5 -34.167 -38.5 -49.5l-30 -115h-82l35 131c4 15.333 15.833 31.5 35.5 48.5s41.834 33.667 66.501 50
s49.167 33.666 73.5 51.999s44.666 39.666 60.999 63.999s24.5 49.5 24.5 75.5c0 24.667 -11 42 -33 52s-47 15 -75 15c-40 0 -72.167 -5.66699 -96.5 -17s-48.833 -32.333 -73.5 -63l-56 43c70 89.333 153.667 134 251 134c48.667 0 92 -12.167 130 -36.5
s57 -59.833 57 -106.5zM230 97.0039l-26 -97h-103l27 97h102z" />
    <glyph glyph-name="at" unicode="@" horiz-adv-x="1024" 
d="M993 443c0 -40.667 -6.99805 -84.8301 -20.998 -132.497s-33.5 -93.167 -58.5 -136.5s-57.167 -79.5 -96.5 -108.5s-81.333 -43.5 -126 -43.5c-62 0 -98.667 32.333 -110 97c-50 -61.333 -109.667 -92 -179 -92c-42 0 -74 15 -96 45s-33 67 -33 111
c0 46.667 10.5 94.334 31.5 143.001s51.833 90.5 92.5 125.5s85 52.5 133 52.5c21.333 0 37.5 -0.833008 48.5 -2.5s20.667 -5 29 -10s15.666 -12 21.999 -21s15.166 -20.5 26.499 -34.5l17 61h92l-92 -344c-4 -15.333 0 -26.333 12 -33s26 -10 42 -10
c25.333 0 49 12.667 71 38s39.5 55.833 52.5 91.5s23.167 70.667 30.5 105s11 62.833 11 85.5c0 140.667 -93.667 211 -281 211c-88.667 0 -168.667 -21.833 -240 -65.5s-126.5 -102.5 -165.5 -176.5s-58.5 -155.667 -58.5 -245c0 -84 25 -145.667 75 -185
s118.333 -59 205 -59c68.667 0 128.667 6.33301 180 19l-22 -85c-56.667 -17.333 -114.334 -26 -173.001 -26c-52.667 0 -100.5 5.66699 -143.5 17s-81.667 28.666 -116 51.999s-61 55.166 -80 95.499s-28.5 87.833 -28.5 142.5c0 78.667 15.167 155.167 45.5 229.5
s71.333 139.166 123 194.499s113.834 99.833 186.501 133.5s149 50.5 229 50.5c50 0 96 -5.16699 138 -15.5s80.5 -26.333 115.5 -48s62.333 -51.834 82 -90.501s29.5 -84 29.5 -136zM618.002 340.004c0 61.333 -26.332 91.998 -78.999 91.998
c-35.333 0 -66.333 -14.167 -93 -42.5s-45.834 -60.666 -57.501 -96.999s-17.5 -71.5 -17.5 -105.5c0 -60 26.333 -90 79 -90c32 0 61.333 14.5 88 43.5s46.667 61.833 60 98.5s20 70.334 20 101.001z" />
    <glyph glyph-name="A" unicode="A" horiz-adv-x="768" 
d="M681 0h-109l-26 198h-363l-134 -198h-105l509 739h112zM526 285l-50 341l-229 -341h279z" />
    <glyph glyph-name="B" unicode="B" horiz-adv-x="689" 
d="M686 607c0 -48.667 -17.3311 -93 -51.998 -133s-76.334 -66.667 -125.001 -80c31.333 -8 57.333 -24.833 78 -50.5s31 -54.5 31 -86.5c0 -68 -30 -127.833 -90 -179.5s-124.667 -77.5 -194 -77.5h-324l199 739h297c49.333 0 91.666 -10.5 126.999 -31.5
s53 -54.5 53 -100.5zM585.002 574c0 50.667 -44.667 76.001 -134 76.001h-163l-59 -220h161c24 0 47 2.5 69 7.5s42.667 13 62 24s34.833 26.167 46.5 45.5s17.5 41.666 17.5 66.999zM520.002 251.001c0 62.667 -52.666 94.001 -157.999 94.001h-155l-69 -256h161
c34 0 67.167 5.5 99.5 16.5s60.666 29.167 84.999 54.5s36.5 55.666 36.5 90.999z" />
    <glyph glyph-name="C" unicode="C" horiz-adv-x="696" 
d="M713 601c0 -19.333 -2.66699 -38.998 -8 -58.998h-104c4.66699 17.333 7 32.666 7 45.999c0 56.667 -43.667 85 -131 85c-134.667 0 -229.334 -102.667 -284.001 -308c-16.667 -59.333 -25 -110 -25 -152c0 -48.667 11.667 -84.834 35 -108.501s59.333 -35.5 108 -35.5
c111.333 0 178.666 43 201.999 129h103c-17.333 -68 -57.166 -120.333 -119.499 -157s-130.833 -55 -205.5 -55c-150.667 0 -226 73.667 -226 221c0 50 6.16699 100.5 18.5 151.5s30.833 100.167 55.5 147.5s53.834 89.5 87.501 126.5s74.167 66.5 121.5 88.5
s97.666 33 150.999 33c27.333 0 52.833 -2.33301 76.5 -7s46.334 -12.5 68.001 -23.5s38.667 -27 51 -48s18.5 -45.833 18.5 -74.5z" />
    <glyph glyph-name="D" unicode="D" horiz-adv-x="737" 
d="M723 502c0 -39.333 -6.66602 -83.001 -19.999 -131.001c-30 -114.667 -85.333 -205.167 -166 -271.5s-179.334 -99.5 -296.001 -99.5h-231l199 739h230c87.333 0 156.5 -18.667 207.5 -56s76.5 -97.666 76.5 -180.999zM617.001 471.999c0 60 -18 104.667 -54 134
s-84.667 44 -146 44h-129l-150 -561h129c100 0 183.333 38.167 250 114.5s100 165.833 100 268.5z" />
    <glyph glyph-name="E" unicode="E" horiz-adv-x="621" 
d="M667 739l-25 -89h-354l-61 -227h344l-23 -89h-344l-66 -245h365l-25 -89h-468l199 739h458z" />
    <glyph glyph-name="F" unicode="F" horiz-adv-x="583" 
d="M639 739l-25 -89h-326l-61 -227h307l-24 -89h-306l-90 -334h-104l199 739h430z" />
    <glyph glyph-name="G" unicode="G" horiz-adv-x="779" 
d="M783 588c0 -12 -1.33301 -22.999 -4 -32.999h-103c0.666992 2.66699 1 7 1 13c0 30.667 -15.5 54.5 -46.5 71.5s-62.833 25.5 -95.5 25.5c-73.333 0 -137.333 -19 -192 -57s-95.167 -87 -121.5 -147s-39.5 -126.333 -39.5 -199c0 -60.667 15.333 -106.834 46 -138.501
s76.334 -47.5 137.001 -47.5c68.667 0 130.334 8 185.001 24l54 205h-168l24 89h271l-95 -357c-98.667 -34 -193.334 -51 -284.001 -51c-187.333 0 -281 80.333 -281 241c0 92 19.5 178 58.5 258s95.5 144.833 169.5 194.5s157.667 74.5 251 74.5
c37.333 0 72.666 -5 105.999 -15s62.833 -28 88.5 -54s38.5 -58.333 38.5 -97z" />
    <glyph glyph-name="H" unicode="H" horiz-adv-x="726" 
d="M771 739l-199 -739h-103l90 334h-355l-90 -334h-104l199 739h103l-85 -316h356l85 316h103z" />
    <glyph glyph-name="I" unicode="I" horiz-adv-x="267" 
d="M312 739l-198 -739h-104l199 739h103z" />
    <glyph glyph-name="J" unicode="J" horiz-adv-x="582" 
d="M628 739l-140.002 -519.001c-18 -67.333 -53.333 -123.166 -106 -167.499s-113.334 -66.5 -182.001 -66.5c-49.333 0 -89.166 12.833 -119.499 38.5s-45.5 62.5 -45.5 110.5c0 20 2.66699 41.333 8 64h100c-4 -16 -6 -31 -6 -45c0 -52 30.333 -78 91 -78
c38.667 0 71.834 14 99.501 42s46.834 62 57.501 102l139 519h104z" />
    <glyph glyph-name="K" unicode="K" horiz-adv-x="680" 
d="M744 739l-400 -318l240 -421h-139l-227 390l-104 -390h-104l199 739h103l-84 -314l389 314h127z" />
    <glyph glyph-name="L" unicode="L" horiz-adv-x="542" 
d="M465 89l-25 -89h-430l199 739h103l-174 -650h327z" />
    <glyph glyph-name="M" unicode="M" horiz-adv-x="919" 
d="M965 739l-199 -739h-103l172 642l-407 -642h-82l-61 637l-171 -637h-104l199 739h163l54 -596l376 596h163z" />
    <glyph glyph-name="N" unicode="N" horiz-adv-x="740" 
d="M785 739l-198 -739h-148l-163 606l-162 -606h-104l199 739h146l164 -606l163 606h103z" />
    <glyph glyph-name="O" unicode="O" horiz-adv-x="792" 
d="M782 517c0 -62 -11.502 -124.664 -34.502 -187.997s-54.333 -120.333 -94 -171s-88.5 -92 -146.5 -124s-119.333 -48 -184 -48c-80.667 0 -142.5 22.667 -185.5 68s-64.5 108.333 -64.5 189c0 65.333 11 128.666 33 189.999s52.333 115.666 91 162.999
s86.834 85.5 144.501 114.5s119.834 43.5 186.501 43.5c80 0 142.333 -19.833 187 -59.5s67 -98.834 67 -177.501zM676.998 508.003c0 104.667 -57.667 156.999 -173 156.999c-153.333 0 -255 -93.667 -305 -281c-14 -51.333 -21 -96.333 -21 -135
c0 -115.333 56 -173 168 -173c40.667 0 79 9 115 27s67 41.833 93 71.5s48.333 63.334 67 101.001s32.667 76.5 42 116.5s14 78.667 14 116z" />
    <glyph glyph-name="P" unicode="P" horiz-adv-x="637" 
d="M656 597c0 -20.667 -3.33203 -44.3369 -9.99902 -71.0039c-8.66699 -31.333 -20 -59 -34 -83s-30 -43.5 -48 -58.5s-38 -27.5 -60 -37.5s-45 -17.167 -69 -21.5s-49.167 -7.66602 -75.5 -9.99902s-53 -3.16602 -80 -2.49902s-54.167 0.666992 -81.5 0l-84 -313h-104
l199 739h209c24 0 45.167 -0.666992 63.5 -2s39.166 -4.66602 62.499 -9.99902s42.5 -12.833 57.5 -22.5s27.833 -23.667 38.5 -42s16 -40.166 16 -65.499zM553.001 566.997c0 18.667 -5 34.167 -15 46.5s-24.167 20.833 -42.5 25.5s-34.5 7.66699 -48.5 9s-31 2 -51 2h-108
l-66 -247h109c29.333 0 56.333 2.5 81 7.5s48 13.167 70 24.5s39.333 28.333 52 51s19 49.667 19 81z" />
    <glyph glyph-name="Q" unicode="Q" horiz-adv-x="803" 
d="M782 517c-0.666992 -50 -9.99805 -104.336 -27.998 -163.003c-18 -59.333 -43 -112.666 -75 -159.999c-34.667 -52 -76.334 -96 -125.001 -132c27.333 4.66699 54.666 7.66699 81.999 9c28 1.33301 56.333 1.33301 85 0l-20 -71h-178
c-84 -1.33301 -128 -2.66602 -132 -3.99902c-11.333 -2.66699 -22.666 -4.66699 -33.999 -6c-12 -2 -23.333 -3.33301 -34 -4c-50.667 -4 -96.334 6.33301 -137.001 31c-36.667 22.667 -64.667 52.334 -84 89.001c-20 37.333 -29.667 83 -29 137
c1.33301 85.333 20.333 168 57 248c36.667 80.667 89.334 143.334 158.001 188.001c72.667 48 152.667 73 240 75c51.333 1.33301 96.333 -7.33398 135 -26.001c38 -18 67.333 -44 88 -78c21.333 -36 31.666 -80.333 30.999 -133zM677.002 507.997
c0 104.667 -57.667 156.999 -173 156.999c-153.333 0 -255 -93.667 -305 -281c-14 -51.333 -21 -96.333 -21 -135c0 -115.333 56 -173 168 -173c40.667 0 79 9 115 27s67 41.833 93 71.5s48.333 63.334 67 101.001s32.667 76.5 42 116.5s14 78.667 14 116z" />
    <glyph glyph-name="R" unicode="R" horiz-adv-x="644" 
d="M666 606c0 -58 -16.6709 -104.169 -50.0039 -138.502s-80.666 -64.166 -141.999 -89.499c23.333 -2.66699 41.833 -13.5 55.5 -32.5s20.5 -40.5 20.5 -64.5c0 -26.667 -4.16699 -71.334 -12.5 -134.001s-11.166 -111.667 -8.49902 -147h-104
c0.666992 17.333 3.5 52.833 8.5 106.5s7.5 95.167 7.5 124.5c0 18.667 -1.33301 34.334 -4 47.001s-6.83398 22.834 -12.501 30.501s-12.5 13.5 -20.5 17.5s-17.5 6.66699 -28.5 8s-23.333 2 -37 2h-44.5h-90l-90 -336h-104l199 739h234
c28.667 0 53.834 -1.33301 75.501 -4s44.834 -8.16699 69.501 -16.5s43.834 -22 57.501 -41s20.5 -42.833 20.5 -71.5zM556.996 571.998c0 52 -47 77.999 -141 77.999h-128l-60 -225h128c26 0 50.167 2.33301 72.5 7s43.5 12.334 63.5 23.001s35.833 26 47.5 46
s17.5 43.667 17.5 71z" />
    <glyph glyph-name="S" unicode="S" horiz-adv-x="677" 
d="M672 609c0 -18 -2.66895 -36.6641 -8.00195 -55.9971h-104c3.33301 12 5 24 5 36c0 17.333 -4.5 31.666 -13.5 42.999s-21.833 19.166 -38.5 23.499s-31.167 7 -43.5 8s-27.5 1.5 -45.5 1.5c-47.333 0 -88.666 -12.5 -123.999 -37.5s-53 -60.5 -53 -106.5
c0 -21.333 9 -38.833 27 -52.5s40.333 -23.167 67 -28.5s55.667 -12 87 -20s60.333 -16.5 87 -25.5s49 -24.333 67 -46s27 -48.5 27 -80.5c0 -48.667 -11.5 -91.834 -34.5 -129.501s-53.167 -67.167 -90.5 -88.5s-77.5 -37.333 -120.5 -48s-87.167 -16 -132.5 -16
c-55.333 0 -101.166 14.167 -137.499 42.5s-54.5 69.5 -54.5 123.5c0 20.667 3.33301 43.334 10 68.001h105c-4.66699 -15.333 -7 -29 -7 -41c0 -30.667 9.66699 -55.5 29 -74.5s44.666 -28.5 75.999 -28.5c165.333 0 248 53.333 248 160
c0 29.333 -12.5 51.666 -37.5 66.999s-55.167 25.833 -90.5 31.5s-70.666 12 -105.999 19s-65.5 21.167 -90.5 42.5s-37.5 51 -37.5 89c0 77.333 32.833 141.5 98.5 192.5s138.5 76.5 218.5 76.5c26 0 50.667 -2.16699 74 -6.5s46.333 -11.5 69 -21.5s40.667 -25 54 -45
s20 -44 20 -72z" />
    <glyph glyph-name="T" unicode="T" horiz-adv-x="627" 
d="M734 739l-24 -89h-242l-174 -650h-104l175 650h-242l24 89h587z" />
    <glyph glyph-name="U" unicode="U" horiz-adv-x="754" 
d="M800 739l-110.001 -409.001c-15.333 -56 -32.833 -104 -52.5 -144s-44.5 -75.667 -74.5 -107s-66.667 -54.666 -110 -69.999s-93.666 -23 -150.999 -23c-72.667 0 -128.834 13.5 -168.501 40.5s-59.5 74.833 -59.5 143.5c0 44.667 8.33301 98 25 160l110 409h103
l-109 -409c-14 -48 -21 -90.333 -21 -127c0 -47.333 12 -80.333 36 -99s60 -28 108 -28c74.667 0 131.334 21.667 170.001 65s69 106.333 91 189l109 409h104z" />
    <glyph glyph-name="V" unicode="V" horiz-adv-x="669" 
d="M781 739l-462 -739h-112l-65 739h116l41 -606l367 606h115z" />
    <glyph glyph-name="W" unicode="W" horiz-adv-x="995" 
d="M1107 739l-418 -739h-92l-5 616l-337 -616h-92l-21 739h109v-585l312 585h123l-1 -585l313 585h109z" />
    <glyph glyph-name="X" unicode="X" horiz-adv-x="720" 
d="M786 739l-329 -345l167 -394h-131l-125 322l-293 -322h-121l377 394l-144 345h131l104 -272l244 272h120z" />
    <glyph glyph-name="Y" unicode="Y" horiz-adv-x="681" 
d="M794 739l-395 -445l-78 -294h-104l79 294l-154 445h126l111 -355l298 355h117z" />
    <glyph glyph-name="Z" unicode="Z" horiz-adv-x="630" 
d="M701 739l-30 -112l-559 -538h426l-25 -89h-539l31 113l559 537h-395l25 89h507z" />
    <glyph glyph-name="bracketleft" unicode="[" horiz-adv-x="406" 
d="M426 739l-14 -52h-103l-224 -838h102l-14 -52h-190l253 942h190z" />
    <glyph glyph-name="backslash" unicode="\" horiz-adv-x="406" 
d="M359 -53h-70l-242 807h71z" />
    <glyph glyph-name="bracketright" unicode="]" horiz-adv-x="406" 
d="M426 739l-253 -942h-190l14 52h101l225 838h-102l15 52h190z" />
    <glyph glyph-name="asciicircum" unicode="^" horiz-adv-x="1024" 
d="M779 10h-63l-204 549l-204 -549h-63l235 615h64z" />
    <glyph glyph-name="underscore" unicode="_" horiz-adv-x="512" 
d="M421 -76l-15 -56h-512l15 56h512z" />
    <glyph glyph-name="grave" unicode="`" horiz-adv-x="235" 
d="M273 614h-62l-96 176h103z" />
    <glyph glyph-name="a" unicode="a" horiz-adv-x="565" 
d="M527 431c0 -38.667 -16.333 -110.167 -49 -214.5s-47.334 -176.5 -44.001 -216.5h-92c2.66699 33.333 5.66699 58.333 9 75c-32.667 -30.667 -61.667 -53 -87 -67s-56.333 -21 -93 -21c-40.667 0 -77.667 9.83301 -111 29.5s-50 48.167 -50 85.5
c0 10.667 1.66699 21.667 5 33c9.33301 35.333 25 65.333 47 90s45 43.167 69 55.5s54.5 21.833 91.5 28.5s68.167 10.5 93.5 11.5s57.666 1.5 96.999 1.5c11.333 25.333 17 47 17 65c0 24.667 -8.66699 42.5 -26 53.5s-39 16.5 -65 16.5c-32 0 -61 -6.83301 -87 -20.5
s-42.667 -34.5 -50 -62.5h-96c14.667 53.333 44.334 91.833 89.001 115.5s97.334 35.5 158.001 35.5c116 0 174 -31.333 174 -94zM393 252c-34 2 -51.333 3.00098 -52 3.00098c-23.333 0 -47 -2.16699 -71 -6.5s-48.667 -11 -74 -20s-46 -22.833 -62 -41.5
s-24 -40.334 -24 -65.001c0 -21.333 7.83301 -37.833 23.5 -49.5s34.5 -17.5 56.5 -17.5c58.667 0 103 17.167 133 51.5s53.333 82.833 70 145.5z" />
    <glyph glyph-name="b" unicode="b" horiz-adv-x="604" 
d="M566 356c0 -50.667 -13.333 -104.333 -40 -161s-64 -105.5 -112 -146.5s-98.667 -61.5 -152 -61.5c-29.333 0 -58.833 6.33301 -88.5 19s-51.167 30.667 -64.5 54l-17 -60h-92l199 739h89l-80 -298c50.667 56 115.667 84 195 84c53.333 0 93.833 -14.833 121.5 -44.5
s41.5 -71.167 41.5 -124.5zM468 352.001c0 35.333 -8.49902 63.167 -25.499 83.5s-42.833 30.5 -77.5 30.5c-44 0 -83.333 -16.833 -118 -50.5s-60.167 -72.667 -76.5 -117s-24.5 -87.833 -24.5 -130.5c0 -75.333 35.333 -113 106 -113c41.333 0 79.166 17.167 113.499 51.5
s60 74 77 119s25.5 87.167 25.5 126.5z" />
    <glyph glyph-name="c" unicode="c" horiz-adv-x="533" 
d="M513 414c0 -17.333 -4.33105 -38.334 -12.998 -63.001h-91c6.66699 14.667 10 28.334 10 41.001c0 24 -11 40.667 -33 50s-46.667 14 -74 14c-30 0 -57.5 -10.833 -82.5 -32.5s-44.833 -48.667 -59.5 -81s-26 -65 -34 -98s-12 -62.833 -12 -89.5c0 -66 32.667 -99 98 -99
c34.667 0 65.167 11 91.5 33s44.166 50 53.499 84h91c-16 -60 -46.667 -106 -92 -138s-99.666 -48 -162.999 -48c-114.667 0 -172 51 -172 153c0 34 5.66699 72.667 17 116c22.667 84.667 56.5 150.667 101.5 198s107.833 71 188.5 71c21.333 0 41.166 -1.5 59.499 -4.5
s36.666 -8.16699 54.999 -15.5s33 -18.833 44 -34.5s16.5 -34.5 16.5 -56.5z" />
    <glyph glyph-name="d" unicode="d" horiz-adv-x="605" 
d="M660 739l-198.001 -739.001h-92l16 58c-23.333 -20 -50.833 -36.833 -82.5 -50.5s-61.5 -20.5 -89.5 -20.5c-52 0 -94.667 18.333 -128 55s-50 81.334 -50 134.001c0 51.333 13 103.833 39 157.5s62.333 99 109 136s96.334 55.5 149.001 55.5
c20 0 40.167 -2.16699 60.5 -6.5s40.333 -12.833 60 -25.5s31.5 -28.667 35.5 -48l79 294h92zM443.999 324.999c0 38.667 -9.16699 71.501 -27.5 98.501s-45.833 40.5 -82.5 40.5c-38 0 -73 -16.167 -105 -48.5s-56 -69.333 -72 -111s-24 -80.834 -24 -117.501
c0 -36 8.83301 -66.167 26.5 -90.5s43.834 -36.5 78.501 -36.5c39.333 0 75.166 14.5 107.499 43.5s56.833 63.667 73.5 104s25 79.5 25 117.5z" />
    <glyph glyph-name="e" unicode="e" horiz-adv-x="570" 
d="M538 373c0 -42 -9.33594 -85.668 -28.0029 -131.001h-366c-8.66699 -33.333 -13 -61 -13 -83c0 -70.667 32.667 -106 98 -106c36.667 0 69.334 9.83301 98.001 29.5s49.334 46.5 62.001 80.5h99c-26 -56 -63.167 -99.333 -111.5 -130s-103.5 -46 -165.5 -46
c-56.667 0 -100 15.833 -130 47.5s-45 75.834 -45 132.501c0 93.333 31.333 176.333 94 249s139.667 109 231 109c54.667 0 97.834 -12.333 129.501 -37s47.5 -63 47.5 -115zM441.997 374.999c0 29.333 -9.33203 50.834 -27.999 64.501s-43.334 20.5 -74.001 20.5
c-41.333 0 -76.833 -14.333 -106.5 -43s-53.5 -65 -71.5 -109h266c9.33301 25.333 14 47.666 14 66.999z" />
    <glyph glyph-name="f" unicode="f" horiz-adv-x="337" 
d="M465 739l-21.001 -74.999c-13.333 8 -32 12 -56 12c-14.667 0 -27.667 -2.83301 -39 -8.5s-20.333 -11.834 -27 -18.501s-13.167 -16.834 -19.5 -30.501s-10.833 -24.667 -13.5 -33s-6.16699 -21.166 -10.5 -38.499s-7.16602 -29 -8.49902 -35h123l-17 -67h-123
l-120 -445h-92l120 445h-103l18 67h102l15 58c4.66699 18 10 35 16 51s12.5 30.667 19.5 44s15.5 25.333 25.5 36s21.667 19.667 35 27s29.333 12.833 48 16.5s39.667 5.5 63 5.5c21.333 0 43 -3.66699 65 -11z" />
    <glyph glyph-name="g" unicode="g" horiz-adv-x="604" 
d="M598 512l-129 -480.999c-19.333 -72.667 -57.333 -129.834 -114 -171.501s-122.667 -62.5 -198 -62.5c-47.333 0 -87 10 -119 30s-48 52.333 -48 97c0 11.333 1.66699 23 5 35h96c-2.66699 -10.667 -4 -19 -4 -25c0 -25.333 10.5 -43.833 31.5 -55.5
s45.167 -17.5 72.5 -17.5c25.333 0 48.5 5 69.5 15s38.167 22 51.5 36s25.666 32.333 36.999 55s20 43.167 26 61.5s12.333 40.5 19 66.5c-59.333 -54 -120.666 -81 -183.999 -81c-114.667 0 -172 52 -172 156c0 55.333 12.333 110 37 164s60.5 99.333 107.5 136
s98.833 55 155.5 55c42.667 0 75.5 -4 98.5 -12s41.5 -27 55.5 -57l14 56h92zM452 349.001c0 74 -38.333 111.001 -115 111.001c-42 0 -78.833 -14.667 -110.5 -44s-54.667 -64 -69 -104s-21.5 -80.333 -21.5 -121c0 -34.667 8.66699 -61.834 26 -81.501
s43.333 -29.5 78 -29.5c62 0 112.833 28.5 152.5 85.5s59.5 118.167 59.5 183.5z" />
    <glyph glyph-name="h" unicode="h" horiz-adv-x="586" 
d="M543 409c0 -29.333 -4.66406 -59.6689 -13.9971 -91.002l-86 -318h-92l87 323c4.66699 18.667 7 35.334 7 50.001c0 25.333 -6.83301 46 -20.5 62s-32.834 24 -57.501 24c-36.667 0 -73.834 -10.167 -111.501 -30.5s-60.834 -46.833 -69.501 -79.5l-94 -349h-92l199 739
h92l-79 -292c18.667 24.667 45.167 43.834 79.5 57.501s68.5 20.5 102.5 20.5c46.667 0 83.167 -8.5 109.5 -25.5s39.5 -47.167 39.5 -90.5z" />
    <glyph glyph-name="i" unicode="i" horiz-adv-x="235" 
d="M294 739l-26 -94h-98l26 94h98zM229 512l-137 -512h-92l137 512h92z" />
    <glyph glyph-name="j" unicode="j" horiz-adv-x="293" 
d="M352 739l-25 -94h-99l26 94h98zM288 512l-158.998 -594c-6 -23.333 -15 -44 -27 -62s-24.833 -31.5 -38.5 -40.5s-27.667 -16.5 -42 -22.5s-27.333 -9.5 -39 -10.5s-21 -1.66699 -28 -2s-10.833 -0.166016 -11.5 0.500977l21 84
c5.33301 -1.33301 11.666 -1.33301 18.999 0s14.5 3.66602 21.5 6.99902s14.167 11.5 21.5 24.5s13.666 30.5 18.999 52.5l151 563h92z" />
    <glyph glyph-name="k" unicode="k" horiz-adv-x="510" 
d="M540 512l-265 -223l144 -289h-122l-131 273l-74 -273h-92l199 739h92l-118 -440l251 213h116z" />
    <glyph glyph-name="l" unicode="l" horiz-adv-x="235" 
d="M291 739l-199 -739h-92l199 739h92z" />
    <glyph glyph-name="m" unicode="m" horiz-adv-x="917" 
d="M874 408c0 -26 -3.66602 -51.6689 -10.999 -77.002l-89 -331h-92l89 331c4.66699 18.667 7 35.334 7 50.001c0 52.667 -29.333 79 -88 79c-32.667 0 -66.167 -13.5 -100.5 -40.5s-56.166 -56.5 -65.499 -88.5l-89 -331h-92l89 331c3.33301 14.667 5 27.667 5 39
c0 26.667 -7.33301 48.334 -22 65.001s-35.334 25 -62.001 25c-34 0 -69 -13.5 -105 -40.5s-58.333 -56.5 -67 -88.5l-89 -331h-92l137 512h92l-18 -71c56 56 114.333 84 175 84c42 0 74.5 -6.16699 97.5 -18.5s40.5 -36.5 52.5 -72.5c59.333 60.667 122.666 91 189.999 91
c98.667 0 148 -39 148 -117z" />
    <glyph glyph-name="n" unicode="n" horiz-adv-x="587" 
d="M546 408c0 -20.667 -3.66797 -44.333 -11.001 -71l-91 -337h-91c0.666992 2.66699 10.667 37.334 30 104.001s35.166 124 47.499 172s18.5 79.667 18.5 95c0 27.333 -9.16699 49.666 -27.5 66.999s-41.5 26 -69.5 26c-38.667 0 -74.167 -12.667 -106.5 -38
s-53.833 -57 -64.5 -95l-89 -331h-92l137 512h92l-17 -66c12.667 8.66699 26.334 19 41.001 31s25.834 20.833 33.501 26.5s20.167 10.667 37.5 15s39 6.5 65 6.5c104.667 0 157 -39 157 -117z" />
    <glyph glyph-name="o" unicode="o" horiz-adv-x="606" 
d="M566 349c0 -96 -32.667 -180.333 -98 -253s-145.333 -109 -240 -109c-58 0 -104.667 15 -140 45s-53 73.667 -53 131c0 96.667 32.5 181.167 97.5 253.5s145.167 108.5 240.5 108.5c58 0 104.667 -15 140 -45s53 -73.667 53 -131zM466 331
c0 38 -9.16797 69.001 -27.501 93.001s-46.166 36 -83.499 36c-62 0 -114.333 -30.333 -157 -91s-64 -123.334 -64 -188.001c0 -38 9.33301 -68.833 28 -92.5s46.667 -35.5 84 -35.5c41.333 0 79.5 15.167 114.5 45.5s61.333 66.5 79 108.5s26.5 83.333 26.5 124z" />
    <glyph glyph-name="p" unicode="p" horiz-adv-x="613" 
d="M575 362c0 -64 -12.668 -124.167 -38.001 -180.5s-63.166 -103 -113.499 -140s-107.833 -55.5 -172.5 -55.5c-52 0 -100.333 22.333 -145 67l-68 -256h-92l191 715h92l-17 -65c70 52 131 78 183 78c120 0 180 -54.333 180 -163zM472.999 340
c0 37.333 -8.83301 66.666 -26.5 87.999s-44.5 32 -80.5 32c-43.333 0 -82.333 -16 -117 -48s-60.334 -69.667 -77.001 -113s-25 -85.666 -25 -126.999c0 -37.333 9 -66.666 27 -87.999s45.333 -32 82 -32c42.667 0 81.334 16 116.001 48s60.167 69.667 76.5 113
s24.5 85.666 24.5 126.999z" />
    <glyph glyph-name="q" unicode="q" horiz-adv-x="613" 
d="M607 512l-190.998 -714.999h-92l68 256c-68.667 -44.667 -128.334 -67 -179.001 -67c-120 0 -180 54.667 -180 164c0 64 12.667 124.167 38 180.5s63.166 102.833 113.499 139.5s107.833 55 172.5 55c30.667 0 56.5 -6.33301 77.5 -19s42.167 -32.334 63.5 -59.001l17 65
h92zM460.002 340.001c0 37.333 -8.83398 66.666 -26.501 87.999s-44.834 32 -81.501 32c-43.333 0 -82.166 -16 -116.499 -48s-59.833 -69.667 -76.5 -113s-25 -85.666 -25 -126.999c0 -37.333 9 -66.666 27 -87.999s45.333 -32 82 -32c42.667 0 81.334 16 116.001 48
s60.167 69.667 76.5 113s24.5 85.666 24.5 126.999z" />
    <glyph glyph-name="r" unicode="r" horiz-adv-x="371" 
d="M417 512l-22.001 -82c-125.333 0 -200.666 -47.667 -225.999 -143l-77 -287h-92l137 512h92l-18 -70c24.667 30 52.667 49.167 84 57.5s72 12.5 122 12.5z" />
    <glyph glyph-name="s" unicode="s" horiz-adv-x="515" 
d="M486 426c0 -12.667 -2.66699 -29.666 -8 -50.999h-94c2.66699 12 4 21 4 27c0 38.667 -27.333 58 -82 58c-28.667 0 -55.834 -8.83301 -81.501 -26.5s-38.5 -40.167 -38.5 -67.5c0 -17.333 8.66699 -31 26 -41s38.333 -17.5 63 -22.5s49.5 -10.5 74.5 -16.5
s46.167 -16.833 63.5 -32.5s26 -36.5 26 -62.5c0 -45.333 -14.667 -84.166 -44 -116.499s-63.833 -55 -103.5 -68s-81.5 -19.5 -125.5 -19.5s-80.667 8.33301 -110 25s-44 45 -44 85c0 15.333 2.33301 32.333 7 51h95c-2.66699 -8.66699 -4 -19 -4 -31
c0 -42.667 28.333 -64 85 -64c34 0 66.5 10 97.5 30s46.5 46 46.5 78c0 16.667 -8.66699 29.667 -26 39s-38.166 16.166 -62.499 20.499s-48.833 9.5 -73.5 15.5s-45.667 17.333 -63 34s-26 38.667 -26 66c0 61.333 23.667 108.166 71 140.499s103 48.5 167 48.5
c20.667 0 39 -1 55 -3s32.667 -6.16699 50 -12.5s30.833 -16.5 40.5 -30.5s14.5 -31.667 14.5 -53z" />
    <glyph glyph-name="t" unicode="t" horiz-adv-x="358" 
d="M393 512l-17 -66.001h-113l-84 -312c-4 -17.333 -6 -30.666 -6 -39.999c0 -24.667 12.333 -37 37 -37c22 0 43 3 63 9l-17 -66c-28.667 -8.66699 -59 -13 -91 -13c-59.333 0 -89 25 -89 75c0 20 3.66699 44 11 72l84 312h-92l17 66h92l28 101l102 38l-37 -139h112z" />
    <glyph glyph-name="u" unicode="u" horiz-adv-x="586" 
d="M581 512l-137.998 -511.999h-92l18 66c-46.667 -52.667 -105.334 -79 -176.001 -79c-104 0 -156 39 -156 117c0 22 3.33301 45.667 10 71l90 337h92c-2.66699 -11.333 -12.834 -47.333 -30.501 -108s-32.834 -115.834 -45.501 -165.501s-19 -82.167 -19 -97.5
c0 -27.333 9 -49.5 27 -66.5s40.667 -25.5 68 -25.5c38.667 0 74.334 12.833 107.001 38.5s54 57.167 64 94.5l88 330h93z" />
    <glyph glyph-name="v" unicode="v" horiz-adv-x="547" 
d="M598 512l-348 -512h-94l-75 512h107l51 -399l262 399h97z" />
    <glyph glyph-name="w" unicode="w" horiz-adv-x="833" 
d="M884 512l-311 -512h-92l-21 425l-251 -425h-92l-36 512h98l15 -399l227 399h123l14 -399l227 399h99z" />
    <glyph glyph-name="x" unicode="x" horiz-adv-x="560" 
d="M592 512l-256 -247l132 -265h-117l-95 202l-200 -202h-107l275 265l-123 247h117l86 -183l180 183h108z" />
    <glyph glyph-name="y" unicode="y" horiz-adv-x="547" 
d="M163 0l-81.999 512h107l58 -386l253 386h99l-412 -626l-59 -89h-91c63.333 97.333 105.666 165 126.999 203z" />
    <glyph glyph-name="z" unicode="z" horiz-adv-x="479" 
d="M494 512l-23 -85l-370 -355h275l-20 -72h-376l23 85l368 355h-252l18 72h357z" />
    <glyph glyph-name="braceleft" unicode="{" horiz-adv-x="499" 
d="M555 778l-19.9941 -75.998c-30.667 0 -56.334 -4.66699 -77.001 -14s-36.667 -23.5 -48 -42.5s-19.833 -37.167 -25.5 -54.5s-11.834 -40.166 -18.501 -68.499s-13 -50.833 -19 -67.5c-16.667 -46.667 -34 -82.334 -52 -107.001s-46.333 -52.334 -85 -83.001
c29.333 -38.667 44 -77 44 -115c0 -30.667 -8.16699 -73.167 -24.5 -127.5s-24.5 -94.5 -24.5 -120.5c0 -48 32 -72 96 -72l-20 -76c-26.667 0 -48.167 1 -64.5 3s-33.5 6.5 -51.5 13.5s-31.333 18.833 -40 35.5s-13 38 -13 64c0 30 8 73.167 24 129.5s24 99.166 24 128.499
c0 54 -29.333 87.333 -88 100l20 75c38.667 8.66699 70.667 24.167 96 46.5s43.666 47.666 54.999 75.999s21.166 58.833 29.499 91.5s17.833 64.334 28.5 95.001s24.667 58.5 42 83.5s43.666 45 78.999 60s79.666 22.5 132.999 22.5z" />
    <glyph glyph-name="bar" unicode="|" horiz-adv-x="353" 
d="M203 -264h-52v1079h52v-1079z" />
    <glyph glyph-name="braceright" unicode="}" horiz-adv-x="499" 
d="M428 304l-20.0049 -75.001c-39.333 -8.66699 -71.5 -24 -96.5 -46s-43.167 -47.333 -54.5 -76s-21.166 -59.167 -29.499 -91.5s-17.833 -64 -28.5 -95s-24.667 -59 -42 -84s-43.666 -45 -78.999 -60s-79.666 -22.5 -132.999 -22.5l20 76
c30.667 0 56.334 4.66699 77.001 14s36.667 23.5 48 42.5s19.833 37.333 25.5 55s11.834 40.667 18.501 69s13 50.833 19 67.5c16.667 46 34 81.5 52 106.5s46.333 52.5 85 82.5c-29.333 38.667 -44 77.334 -44 116.001c0 30 8.16699 72.333 24.5 127s24.5 95 24.5 121
c0 47.333 -32 71 -96 71l20 76c26.667 0 48.167 -1 64.5 -3s33.5 -6.5 51.5 -13.5s31.333 -18.667 40 -35s13 -37.5 13 -63.5c0 -30 -8 -73.333 -24 -130s-24 -99.667 -24 -129c0 -54 29.333 -87.333 88 -100z" />
    <glyph glyph-name="asciitilde" unicode="~" horiz-adv-x="546" 
d="M547 323c-5.33301 -30 -25.5 -57.5 -60.5 -82.5s-68.167 -37.5 -99.5 -37.5c-30.667 0 -70 6.83301 -118 20.5s-81 20.5 -99 20.5c-28 0 -53.667 -14.667 -77 -44h-93c4.66699 29.333 24.5 56.833 59.5 82.5s67.833 38.5 98.5 38.5
c31.333 0 71.166 -6.83301 119.499 -20.5s81.5 -20.5 99.5 -20.5c28.667 0 54.334 14.333 77.001 43h93z" />
    <glyph glyph-name="nbspace" unicode="&#xa0;" horiz-adv-x="307" 
 />
    <glyph glyph-name="exclamdown" unicode="&#xa1;" horiz-adv-x="377" 
d="M283 415h-103l26 97h102zM117 -203h-109l169 542h62z" />
    <glyph glyph-name="cent" unicode="&#xa2;" 
d="M536 627l-71.001 -118.999c42 -14 63 -49.333 63 -106c0 -19.333 -1.66699 -36 -5 -50h-87c2.66699 13.333 4 27.666 4 42.999c0 23.333 -5.33301 38 -16 44l-221 -372c11.333 -6.66699 25.333 -10 42 -10c34 0 64.167 11 90.5 33s43.833 49.667 52.5 83h91
c-14 -54.667 -45.333 -99.334 -94 -134.001s-102 -52 -160 -52c-26 0 -47.333 3.33301 -64 10l-84 -140l-46 13l84 140c-42 21.333 -63 61.333 -63 120c0 32.667 6.66699 72.667 20 120c56.667 212.667 172.334 303.334 347.001 272.001l70 118zM375.999 452.001
c-14.667 2 -28.668 3 -42.001 3c-39.333 0 -74.166 -18.5 -104.499 -55.5s-52 -77.667 -65 -122s-19.5 -85.5 -19.5 -123.5c0 -27.333 6 -48.333 18 -63z" />
    <glyph glyph-name="sterling" unicode="&#xa3;" 
d="M654 625c0 -10 -1.66602 -20.667 -4.99902 -32h-91c2 6 3 12.667 3 20c0 25.333 -11 44.166 -33 56.499s-46.333 18.5 -73 18.5c-35.333 0 -64.5 -6 -87.5 -18s-39.667 -28 -50 -48s-19.833 -43.333 -28.5 -70s-16 -55 -22 -85h169l-18 -66h-169l-90 -335h328l-17 -66
h-490l17 66h71l90 335h-71l18 66h71l33 126c13.333 49.333 46.666 88.5 99.999 117.5s108 43.5 164 43.5c28.667 0 56 -4 82 -12s49 -22.167 69 -42.5s30 -45.166 30 -74.499z" />
    <glyph glyph-name="currency" unicode="&#xa4;" horiz-adv-x="634" 
d="M641 201l-37 -37l-105 105c-37.333 -32 -81.333 -48 -132 -48c-53.333 0 -99 16 -137 48l-105 -105l-37 37l106 105c-30.667 38 -46 81.667 -46 131c0 56 16 101 48 135l-108 108l37 37l107 -108c38 30 83 45 135 45c50.667 0 93.667 -15.333 129 -46l108 109l37 -37
l-106 -107c30.667 -39.333 46 -84.333 46 -135s-15 -94.667 -45 -132zM522 438c0 42.667 -15.167 79.668 -45.5 111.001s-66.833 47 -109.5 47c-44.667 0 -82.5 -15.333 -113.5 -46s-46.5 -68.334 -46.5 -113.001c0 -44 15.667 -81.167 47 -111.5s69 -45.5 113 -45.5
c43.333 0 80 15.5 110 46.5s45 68.167 45 111.5z" />
    <glyph glyph-name="yen" unicode="&#xa5;" 
d="M739 739l-192 -219h102l-13 -52h-133l-107 -122h207l-14 -52h-241l-79 -294h-104l79 294h-241l14 52h209l-41 122h-135l13 52h104l-75 219h126l99 -365l296 365h126z" />
    <glyph glyph-name="brokenbar" unicode="&#xa6;" horiz-adv-x="353" 
d="M203 344h-52v410h52v-410zM203 -203h-52v410h52v-410z" />
    <glyph glyph-name="section" unicode="&#xa7;" horiz-adv-x="479" 
d="M360 14c-14.667 -56.667 -49.1689 -102.836 -103.502 -138.503s-106.5 -53.5 -156.5 -53.5c-17.333 0 -42.5 3.16699 -75.5 9.5s-55.5 14.833 -67.5 25.5l20 77c38 -26 75 -39.333 111 -40c35.333 -1.33301 70.5 8 105.5 28s56.167 44 63.5 72
c6 22 1.66699 41.833 -13 59.5s-33.834 32.834 -57.501 45.501l-71 39.5c-23.667 13.667 -42.167 31.334 -55.5 53.001s-16.333 46.5 -9 74.5c24.667 90.667 82.667 148.334 174 173.001c-25.333 12 -46 31.833 -62 59.5s-19 59.5 -9 95.5
c9.33301 36.667 36.5 72.5 81.5 107.5s93.833 52.5 146.5 52.5c29.333 0 53 -2 71 -6s29.333 -7.5 34 -10.5s14 -10.167 28 -21.5l-19 -70c-35.333 26.667 -76.333 40 -123 40c-24 0 -48.5 -8.83301 -73.5 -26.5s-40.167 -37.167 -45.5 -58.5c-6 -22 -2.5 -42 10.5 -60
s30.5 -33.833 52.5 -47.5s43.833 -28 65.5 -43s38.334 -33.667 50.001 -56s13.834 -47.833 6.50098 -76.5c-8 -30 -25.833 -57.833 -53.5 -83.5s-53.167 -43.834 -76.5 -54.501l-35 -16c1.33301 -0.666992 3.33301 -1.83398 6 -3.50098s7.83398 -5.16699 15.501 -10.5
s14.334 -10.833 20.001 -16.5s12.667 -13.167 21 -22.5s14.166 -18.666 17.499 -27.999s6.33301 -20.166 9 -32.499s1.66699 -24.5 -3 -36.5zM347.998 302.998c8 28.667 2.00098 50.834 -17.999 66.501s-38 23.5 -54 23.5c-21.333 0 -47.666 -11.833 -78.999 -35.5
s-50 -46.5 -56 -68.5c-4.66699 -18 -1.33398 -33.833 9.99902 -47.5s23.666 -22.834 36.999 -27.501l21 -6c31.333 8 61 20.833 89 38.5s44.667 36.5 50 56.5z" />
    <glyph glyph-name="dieresis" unicode="&#xa8;" horiz-adv-x="296" 
d="M424 739l-26 -94h-92l26 94h92zM219 739l-25 -94h-93l26 94h92z" />
    <glyph glyph-name="copyright" unicode="&#xa9;" horiz-adv-x="888" 
d="M868 470c0 -81.333 -24.334 -159.667 -73.001 -235s-111.5 -135.666 -188.5 -180.999s-155.833 -68 -236.5 -68c-85.333 0 -155.666 26 -210.999 78s-83 120.333 -83 205c0 81.333 24.333 159.666 73 234.999s111.667 135.833 189 181.5s156.333 68.5 237 68.5
c85.333 0 155.5 -26 210.5 -78s82.5 -120.667 82.5 -206zM815.999 455.999c0 73.333 -24 132.666 -72 177.999s-109 68 -183 68c-70 0 -138.5 -19.667 -205.5 -59s-121.667 -91.666 -164 -156.999s-63.5 -133 -63.5 -203c0 -73.333 24 -132.666 72 -177.999s109 -68 183 -68
c70 0 138.5 19.667 205.5 59s121.667 91.666 164 156.999s63.5 133 63.5 203zM696.999 500.999c0 -16 -1.99902 -31.001 -5.99902 -45.001h-82c2.66699 8.66699 4 19 4 31c0 46 -34 69 -102 69c-36 0 -68.333 -16.167 -97 -48.5s-49.834 -68.5 -63.501 -108.5
s-20.5 -77 -20.5 -111c0 -64.667 32.667 -97 98 -97c32 0 60.833 9.83301 86.5 29.5s44.167 44.834 55.5 75.501h82c-19.333 -54 -49.833 -95.5 -91.5 -124.5s-91.5 -43.5 -149.5 -43.5c-111.333 0 -167 48.333 -167 145c0 89.333 26.333 168 79 236s122 102 208 102
c110.667 0 166 -36.667 166 -110z" />
    <glyph glyph-name="ordfeminine" unicode="&#xaa;" horiz-adv-x="398" 
d="M445 662c0 -29.333 -11.333 -79.6689 -34 -151.002s-32.667 -122 -30 -152h-65c1.33301 19.333 3.66602 37 6.99902 53c-23.333 -21.333 -44 -37 -62 -47s-39.667 -15 -65 -15c-28 0 -53.667 7 -77 21s-35 34 -35 60c0 7.33301 1 15 3 23
c6.66699 24.667 17.667 45.667 33 63s31.5 30.333 48.5 39s38.333 15.334 64 20.001s47.5 7.33398 65.5 8.00098s40.667 1 68 1c8 16 12 31.333 12 46c0 32 -21.667 48 -65 48c-53.333 0 -85 -19.333 -95 -58h-67c18.667 70.667 76.334 106 173.001 106
c80.667 0 121 -21.667 121 -65zM383 284.997l-10 -38h-358l11 38h357zM352 535.997c-16 1.33301 -28.333 2 -37 2c-16 0 -32.5 -1.5 -49.5 -4.5s-34.333 -7.66699 -52 -14s-32 -16 -43 -29s-16.5 -28.167 -16.5 -45.5c0 -14.667 5.5 -26.167 16.5 -34.5
s24.167 -12.5 39.5 -12.5c41.333 0 72.5 12 93.5 36s37.167 58 48.5 102z" />
    <glyph glyph-name="guillemotleft" unicode="&#xab;" horiz-adv-x="571" 
d="M547 458l-176 -200l69 -200h-80l-87 200l194 200h80zM347 458l-176 -200l70 -200h-80l-87 200l193 200h80z" />
    <glyph glyph-name="logicalnot" unicode="&#xac;" horiz-adv-x="634" 
d="M594 194h-62v175h-491v61h553v-236z" />
    <glyph glyph-name="registered" unicode="&#xae;" horiz-adv-x="888" 
d="M868 470c0 -81.333 -24.334 -159.667 -73.001 -235s-111.5 -135.666 -188.5 -180.999s-155.833 -68 -236.5 -68c-85.333 0 -155.666 26 -210.999 78s-83 120.333 -83 205c0 81.333 24.333 159.666 73 234.999s111.667 135.833 189 181.5s156.333 68.5 237 68.5
c85.333 0 155.5 -26 210.5 -78s82.5 -120.667 82.5 -206zM815.999 455.999c0 73.333 -24 132.666 -72 177.999s-109 68 -183 68c-70 0 -138.5 -19.667 -205.5 -59s-121.667 -91.666 -164 -156.999s-63.5 -133 -63.5 -203c0 -73.333 24 -132.666 72 -177.999s109 -68 183 -68
c70 0 138.5 19.667 205.5 59s121.667 91.666 164 156.999s63.5 133 63.5 203zM702.999 531.999c0 -36.667 -10.5 -66.1699 -31.5 -88.5029s-50.5 -41.833 -88.5 -58.5c12 -5.33301 21.333 -9.83301 28 -13.5s11 -8.66699 13 -15s3 -17.833 3 -34.5s-2.5 -45.5 -7.5 -86.5
s-6.5 -73.167 -4.5 -96.5h-73c0.666992 10.667 2.66699 35.834 6 75.501s5 70.167 5 91.5c0 13.333 -2.66699 23.833 -8 31.5s-12.5 12.334 -21.5 14.001s-18.833 2.83398 -29.5 3.50098s-21.667 0.666992 -33 0h-81l-57 -216h-72l128 481h178c97.333 0 146 -29.333 146 -88
zM628.999 511.996c0 10.667 -2.83301 19.333 -8.5 26s-14 11.167 -25 13.5s-20 3.83301 -27 4.5s-16.5 1 -28.5 1h-106l-37 -139h106c84 0 126 31.333 126 94z" />
    <glyph glyph-name="macron" unicode="&#xaf;" horiz-adv-x="296" 
d="M418 716l-20 -71h-297l20 71h297z" />
    <glyph glyph-name="degree" unicode="&#xb0;" horiz-adv-x="327" 
d="M355 625c0 -31.333 -10.833 -58 -32.5 -80s-48.167 -33 -79.5 -33s-58 11 -80 33s-33 48.667 -33 80s11 57.833 33 79.5s48.667 32.5 80 32.5s57.833 -10.833 79.5 -32.5s32.5 -48.167 32.5 -79.5zM314 625c0 20 -6.83301 36.833 -20.5 50.5s-30.5 20.5 -50.5 20.5
s-37 -6.83301 -51 -20.5s-21 -30.5 -21 -50.5s7 -37 21 -51s31 -21 51 -21s36.833 7 50.5 21s20.5 31 20.5 51z" />
    <glyph glyph-name="plusminus" unicode="&#xb1;" horiz-adv-x="1024" 
d="M819 367h-275v-185h-64v185h-275v63h275v184h64v-184h275v-63zM819 0h-614v63h614v-63z" />
    <glyph glyph-name="twosuperior" unicode="&#xb2;" horiz-adv-x="362" 
d="M428 674c0 -12.667 -1.33496 -24 -4.00195 -34c-4 -16 -13.167 -32.667 -27.5 -50s-33.166 -35 -56.499 -53s-43.666 -33 -60.999 -45s-39.666 -26.333 -66.999 -43l-49 -30h207l-17 -60h-300l19 66c4 2.66699 18.5 11.5 43.5 26.5l70 43.5l70.5 47.5
c25.333 17.667 46.166 34.5 62.499 50.5s25.833 29 28.5 39c2.66699 12 4 21 4 27c0 27.333 -19.667 41 -59 41c-36.667 0 -62.667 -20.333 -78 -61h-75c12 36 33.833 65.167 65.5 87.5s66.5 33.5 104.5 33.5c34 0 62.333 -6.66699 85 -20s34 -35.333 34 -66z" />
    <glyph glyph-name="threesuperior" unicode="&#xb3;" horiz-adv-x="380" 
d="M442 679c0 -53.333 -35.666 -92.9961 -106.999 -118.996c42.667 -12 64 -34.333 64 -67c0 -43.333 -20.333 -78.333 -61 -105s-84 -40 -130 -40c-34.667 0 -63.834 8 -87.501 24s-35.5 40 -35.5 72c0 9.33301 1 18.666 3 27.999h68l-1 -9
c-2 -18.667 4.16699 -32.334 18.5 -41.001s31.833 -13 52.5 -13c24 0 47 6.16699 69 18.5s33 29.166 33 50.499c0 33.333 -33 50 -99 50l15 55c18.667 0 36.334 1.83301 53.001 5.5s32 11.5 46 23.5s21 27.667 21 47c0 12 -6.33301 21.167 -19 27.5s-25.667 9.5 -39 9.5
c-47.333 0 -78.333 -18.333 -93 -55h-66c10 36.667 31.333 64.667 64 84s69.667 29 111 29c19.333 0 37.166 -1.83301 53.499 -5.5s31.5 -11.334 45.5 -23.001s21 -27.167 21 -46.5z" />
    <glyph glyph-name="acute" unicode="&#xb4;" horiz-adv-x="235" 
d="M401 790l-190 -176h-63l150 176h103z" />
    <glyph glyph-name="paragraph" unicode="&#xb6;" horiz-adv-x="573" 
d="M512 699h-60.999v-863h-52v863h-92v-863h-51v524c-22 0 -44 3 -66 9s-43.833 15.333 -65.5 28s-39.334 31 -53.001 55s-20.5 52 -20.5 84s6.83301 61.333 20.5 88s31.167 48 52.5 64s43.5 28.5 66.5 37.5s44.833 13.5 65.5 13.5h256v-40z" />
    <glyph glyph-name="periodcentered" unicode="&#xb7;" horiz-adv-x="282" 
d="M236 411l-34 -126h-111l34 126h111z" />
    <glyph glyph-name="cedilla" unicode="&#xb8;" horiz-adv-x="256" 
d="M191 -131c0 -28 -10.666 -51.333 -31.999 -70s-45 -31.334 -71 -38.001s-53 -10 -81 -10c-24.667 0 -56.334 3 -95.001 9l13 52c38 -8.66699 73.333 -13 106 -13c58 0 87 17 87 51c0 20 -12 33.333 -36 40s-48.333 9.33398 -73 8.00098l27 102h41l-14 -51
c85.333 0 128 -26.667 128 -80z" />
    <glyph glyph-name="onesuperior" unicode="&#xb9;" horiz-adv-x="297" 
d="M351 749l-104.001 -390h-66l87 323c-45.333 -28 -82.666 -44.333 -111.999 -49l15 56c38 10.667 77 30.667 117 60h63z" />
    <glyph glyph-name="ordmasculine" unicode="&#xba;" horiz-adv-x="429" 
d="M470 603c0 -68 -22.665 -127.333 -67.998 -178s-101.333 -76 -168 -76c-40.667 0 -73.334 10.5 -98.001 31.5s-37 51.5 -37 91.5c0 68 22.667 127.333 68 178s101.333 76 168 76c41.333 0 74.166 -10.5 98.499 -31.5s36.5 -51.5 36.5 -91.5zM400.002 285l-10 -38h-361
l10 38h361zM401.002 589c0 26.667 -6.5 48.5 -19.5 65.5s-32.5 25.5 -58.5 25.5c-44 0 -80.667 -21.167 -110 -63.5s-44 -86.5 -44 -132.5c0 -26.667 6.5 -48.167 19.5 -64.5s32.5 -24.5 58.5 -24.5c43.333 0 79.833 21 109.5 63s44.5 85.667 44.5 131z" />
    <glyph glyph-name="guillemotright" unicode="&#xbb;" horiz-adv-x="571" 
d="M494 258l-194 -200h-80l175 200l-68 200h80zM294 258l-194 -200h-80l176 200l-69 200h80z" />
    <glyph glyph-name="onequarter" unicode="&#xbc;" horiz-adv-x="819" 
d="M351 749l-104.001 -390h-66l87 323c-45.333 -28 -82.666 -44.333 -111.999 -49l15 56c38 10.667 77 30.667 117 60h63zM758.999 754l-642 -768h-71l642 768h71zM730.999 152l-14 -55h-83l-27 -97h-65l26 97h-184l14 54l245 248h72l-67 -247h83zM627.999 321l-169 -169
h124z" />
    <glyph glyph-name="onehalf" unicode="&#xbd;" horiz-adv-x="819" 
d="M349 749l-104.001 -390h-66l87 323c-47.333 -28 -84.666 -44.333 -111.999 -49l15 56c38 10 77.333 30 118 60h62zM766.999 314c0 -10.667 -1.66699 -21.999 -5 -33.999c-4 -16 -13 -32.667 -27 -50s-32.667 -35 -56 -53s-43.666 -32.833 -60.999 -44.5
s-39.833 -26 -67.5 -43s-43.834 -27.167 -48.501 -30.5h207l-17 -59h-300l18 65c0.666992 0 15 8.5 43 25.5l71.5 44.5l69.5 47c26.667 18.667 48 35.667 64 51s25.333 28.333 28 39c2.66699 13.333 4 22.666 4 27.999c0 26.667 -20 40 -60 40c-36 0 -62 -20.333 -78 -61
h-75c12 35.333 34 64.333 66 87s67 34 105 34c79.333 0 119 -28.667 119 -86zM757.999 754.001l-642 -768h-71l642 768h71z" />
    <glyph glyph-name="threequarters" unicode="&#xbe;" horiz-adv-x="819" 
d="M808 754l-642 -768h-71l642 768h71zM442 679c0 -53.333 -35.666 -92.9961 -106.999 -118.996c42.667 -12 64 -34.333 64 -67c0 -43.333 -20.333 -78.333 -61 -105s-84 -40 -130 -40c-34.667 0 -63.834 8 -87.501 24s-35.5 40 -35.5 72c0 9.33301 1 18.666 3 27.999h68
l-1 -9c-2 -18.667 4.16699 -32.334 18.5 -41.001s31.833 -13 52.5 -13c24 0 47 6.16699 69 18.5s33 29.166 33 50.499c0 33.333 -33 50 -99 50l15 55c18.667 0 36.334 1.83301 53.001 5.5s32 11.5 46 23.5s21 27.667 21 47c0 12 -6.33301 21.167 -19 27.5
s-25.667 9.5 -39 9.5c-47.333 0 -78.333 -18.333 -93 -55h-66c10 36.667 31.333 64.667 64 84s69.667 29 111 29c19.333 0 37.166 -1.83301 53.499 -5.5s31.5 -11.334 45.5 -23.001s21 -27.167 21 -46.5zM756.001 152.004l-15 -55h-83l-26 -97h-66l27 97h-184l14 54l245 248
h71l-66 -247h83zM652.001 321.004l-169 -169h124z" />
    <glyph glyph-name="questiondown" unicode="&#xbf;" horiz-adv-x="529" 
d="M396 415h-102l25 97h103zM414 -69c-70.667 -89.333 -154.003 -134 -250.003 -134c-61.333 0 -110.666 16.833 -147.999 50.5s-48.333 78.834 -33 135.501c8.66699 32.667 27.667 63.667 57 93s59.166 52.5 89.499 69.5s58.833 35.5 85.5 55.5s42.334 38.667 47.001 56
l23 86h82l-28 -102c-4.66699 -18 -15.667 -35.667 -33 -53s-37.166 -33.5 -59.499 -48.5l-67 -45.5c-22.333 -15.333 -42.5 -32.833 -60.5 -52.5s-30 -40.167 -36 -61.5c-6.66699 -27.333 0.333008 -48.833 21 -64.5s48.334 -22.834 83.001 -21.501
c26 0.666992 45.333 2 58 4s29.667 9 51 21s42 30.333 62 55z" />
    <glyph glyph-name="Agrave" unicode="&#xc0;" horiz-adv-x="768" 
d="M519 842h-62l-97 175h104zM681 0h-109l-26 198h-363l-134 -198h-105l509 739h112zM526 285l-50 341l-229 -341h279z" />
    <glyph glyph-name="Aacute" unicode="&#xc1;" horiz-adv-x="768" 
d="M688 1016l-190 -175h-63l150 175h103zM681 0h-109l-26 198h-363l-134 -198h-105l509 739h112zM526 285l-50 341l-229 -341h279z" />
    <glyph glyph-name="Acircumflex" unicode="&#xc2;" horiz-adv-x="768" 
d="M626 841h-62l-56 112l-118 -112h-61l139 174h113zM681 0h-109l-26 198h-363l-134 -198h-105l509 739h112zM526 285l-50 341l-229 -341h279z" />
    <glyph glyph-name="Atilde" unicode="&#xc3;" horiz-adv-x="768" 
d="M659 965c-8.66699 -26.667 -23.3311 -50.167 -43.998 -70.5s-43.667 -30.5 -69 -30.5c-21.333 0 -43.833 6.33301 -67.5 19s-38.5 19 -44.5 19c-16 0 -30.667 -14 -44 -42h-56c8.66699 25.333 23.5 48.5 44.5 69.5s43.833 31.5 68.5 31.5
c21.333 0 44.166 -6.33301 68.499 -19s39.166 -19 44.499 -19c14.667 0 29 14 43 42h56zM681.003 0h-109l-26 198h-363l-134 -198h-105l509 739h112zM526.003 285l-50 341l-229 -341h279z" />
    <glyph glyph-name="Adieresis" unicode="&#xc4;" horiz-adv-x="768" 
d="M672 965l-26 -95h-92l26 95h92zM467 965l-26 -95h-92l26 95h92zM681 0h-109l-26 198h-363l-134 -198h-105l509 739h112zM526 285l-50 341l-229 -341h279z" />
    <glyph glyph-name="Aring" unicode="&#xc5;" horiz-adv-x="768" 
d="M615 982c0 -36.667 -15.3311 -69.5 -45.998 -98.5s-64.334 -43.5 -101.001 -43.5c-24.667 0 -45.167 7.5 -61.5 22.5s-24.5 35.167 -24.5 60.5c0 36 15.167 68.667 45.5 98s63.833 44 100.5 44c25.333 0 46.166 -7.66699 62.499 -23s24.5 -35.333 24.5 -60zM681.002 0
h-109l-26 198h-363l-134 -198h-105l509 739h112zM572.002 971c0 15.333 -5.33301 28 -16 38s-23.667 15 -39 15c-23.333 0 -44.666 -9.16699 -63.999 -27.5s-29 -39.166 -29 -62.499c0 -15.333 5.33301 -28 16 -38s23.667 -15 39 -15c23.333 0 44.666 9.16699 63.999 27.5
s29 39.166 29 62.499zM526.002 285l-50 341l-229 -341h279z" />
    <glyph glyph-name="AE" unicode="&#xc6;" horiz-adv-x="1000" 
d="M1056 739l-25 -89h-354l-61 -227h345l-24 -89h-344l-66 -245h365l-25 -89h-468l54 198h-237l-164 -198h-108l591 739h521zM575 656l-285 -371h186z" />
    <glyph glyph-name="Ccedilla" unicode="&#xc7;" horiz-adv-x="696" 
d="M713 601c0 -19.333 -2.66504 -39.002 -7.99805 -59.002h-104c4.66699 17.333 7 32.666 7 45.999c0 56.667 -43.667 85 -131 85c-134.667 0 -229.334 -102.667 -284.001 -308c-16.667 -59.333 -25 -110 -25 -152c0 -48.667 11.667 -84.834 35 -108.501
s59.333 -35.5 108 -35.5c111.333 0 178.666 43 201.999 129h103c-17.333 -66 -56.333 -117.5 -117 -154.5s-127.334 -56.167 -200.001 -57.5l-10 -37c85.333 0 128 -26.667 128 -80c0 -40 -16.5 -69.667 -49.5 -89s-71.167 -29 -114.5 -29c-39.333 0 -78 3 -116 9l14 52
c36.667 -8.66699 71.667 -13 105 -13c58 0 87 17 87 51c0 20 -12 33.333 -36 40s-48.333 9.33398 -73 8.00098l24 89c-128.667 10.667 -193 84 -193 220c0 62.667 10 125.834 30 189.501s47.833 122.334 83.5 176.001s81.5 97.334 137.5 131.001s117 50.5 183 50.5
c27.333 0 52.833 -2.33301 76.5 -7s46.334 -12.5 68.001 -23.5s38.667 -27 51 -48s18.5 -45.833 18.5 -74.5z" />
    <glyph glyph-name="Egrave" unicode="&#xc8;" horiz-adv-x="621" 
d="M466 841h-63l-96 175h104zM667 739l-25 -89h-354l-61 -227h344l-23 -89h-344l-66 -245h365l-25 -89h-468l199 739h458z" />
    <glyph glyph-name="Eacute" unicode="&#xc9;" horiz-adv-x="621" 
d="M606 1015l-190 -175h-63l150 175h103zM667 739l-25 -89h-354l-61 -227h344l-23 -89h-344l-66 -245h365l-25 -89h-468l199 739h458z" />
    <glyph glyph-name="Ecircumflex" unicode="&#xca;" horiz-adv-x="621" 
d="M552 841h-62l-56 112l-118 -112h-61l139 174h113zM667 739l-25 -89h-354l-61 -227h344l-23 -89h-344l-66 -245h365l-25 -89h-468l199 739h458z" />
    <glyph glyph-name="Edieresis" unicode="&#xcb;" horiz-adv-x="621" 
d="M586 966l-26 -95h-92l26 95h92zM381 966l-26 -95h-92l26 95h92zM667 739l-25 -89h-354l-61 -227h344l-23 -89h-344l-66 -245h365l-25 -89h-468l199 739h458z" />
    <glyph glyph-name="Igrave" unicode="&#xcc;" horiz-adv-x="267" 
d="M288 841h-63l-96 175h103zM312 739l-198 -739h-104l199 739h103z" />
    <glyph glyph-name="Iacute" unicode="&#xcd;" horiz-adv-x="267" 
d="M419 1017l-191 -175h-62l149 175h104zM312 739l-198 -739h-104l199 739h103z" />
    <glyph glyph-name="Icircumflex" unicode="&#xce;" horiz-adv-x="267" 
d="M376 841h-62l-56 112l-118 -112h-61l139 174h113zM312 739l-198 -739h-104l199 739h103z" />
    <glyph glyph-name="Idieresis" unicode="&#xcf;" horiz-adv-x="267" 
d="M410 965l-26 -95h-92l25 95h93zM205 965l-26 -95h-92l26 95h92zM312 739l-198 -739h-104l199 739h103z" />
    <glyph glyph-name="Eth" unicode="&#xd0;" horiz-adv-x="737" 
d="M723 502c0 -39.333 -6.66602 -83.001 -19.999 -131.001c-30 -114.667 -85.333 -205.167 -166 -271.5s-179.334 -99.5 -296.001 -99.5h-231l88 327h-82l23 85h82l88 327h230c87.333 0 156.5 -18.667 207.5 -56s76.5 -97.666 76.5 -180.999zM617.001 471.999
c0 60 -18 104.667 -54 134s-84.667 44 -146 44h-129l-64 -238h173l-22 -85h-173l-64 -238h129c100 0 183.333 38.167 250 114.5s100 165.833 100 268.5z" />
    <glyph glyph-name="Ntilde" unicode="&#xd1;" horiz-adv-x="740" 
d="M639 965c-8.66699 -26.667 -23.5 -50.167 -44.5 -70.5s-44.167 -30.5 -69.5 -30.5c-20.667 0 -43 6.33301 -67 19s-38.667 19 -44 19c-16 0 -30.667 -14 -44 -42h-57c8.66699 26 23.667 49.333 45 70s44.333 31 69 31c20.667 0 43.167 -6.33301 67.5 -19
s39.5 -19 45.5 -19c12.667 0 27 14 43 42h56zM785 739l-198 -739h-148l-163 606l-162 -606h-104l199 739h146l164 -606l163 606h103z" />
    <glyph glyph-name="Ograve" unicode="&#xd2;" horiz-adv-x="792" 
d="M552 841h-63l-96 175h104zM782 517c0 -62 -11.502 -124.664 -34.502 -187.997s-54.333 -120.333 -94 -171s-88.5 -92 -146.5 -124s-119.333 -48 -184 -48c-80.667 0 -142.5 22.667 -185.5 68s-64.5 108.333 -64.5 189c0 65.333 11 128.666 33 189.999
s52.333 115.666 91 162.999s86.834 85.5 144.501 114.5s119.834 43.5 186.501 43.5c80 0 142.333 -19.833 187 -59.5s67 -98.834 67 -177.501zM676.998 508.003c0 104.667 -57.667 156.999 -173 156.999c-153.333 0 -255 -93.667 -305 -281
c-14 -51.333 -21 -96.333 -21 -135c0 -115.333 56 -173 168 -173c40.667 0 79 9 115 27s67 41.833 93 71.5s48.333 63.334 67 101.001s32.667 76.5 42 116.5s14 78.667 14 116z" />
    <glyph glyph-name="Oacute" unicode="&#xd3;" horiz-adv-x="792" 
d="M681 1016l-191 -175h-62l150 175h103zM782 517c0 -62 -11.502 -124.664 -34.502 -187.997s-54.333 -120.333 -94 -171s-88.5 -92 -146.5 -124s-119.333 -48 -184 -48c-80.667 0 -142.5 22.667 -185.5 68s-64.5 108.333 -64.5 189c0 65.333 11 128.666 33 189.999
s52.333 115.666 91 162.999s86.834 85.5 144.501 114.5s119.834 43.5 186.501 43.5c80 0 142.333 -19.833 187 -59.5s67 -98.834 67 -177.501zM676.998 508.003c0 104.667 -57.667 156.999 -173 156.999c-153.333 0 -255 -93.667 -305 -281
c-14 -51.333 -21 -96.333 -21 -135c0 -115.333 56 -173 168 -173c40.667 0 79 9 115 27s67 41.833 93 71.5s48.333 63.334 67 101.001s32.667 76.5 42 116.5s14 78.667 14 116z" />
    <glyph glyph-name="Ocircumflex" unicode="&#xd4;" horiz-adv-x="792" 
d="M639 841h-61l-57 112l-118 -112h-61l139 174h113zM782 517c0 -62 -11.502 -124.664 -34.502 -187.997s-54.333 -120.333 -94 -171s-88.5 -92 -146.5 -124s-119.333 -48 -184 -48c-80.667 0 -142.5 22.667 -185.5 68s-64.5 108.333 -64.5 189
c0 65.333 11 128.666 33 189.999s52.333 115.666 91 162.999s86.834 85.5 144.501 114.5s119.834 43.5 186.501 43.5c80 0 142.333 -19.833 187 -59.5s67 -98.834 67 -177.501zM676.998 508.003c0 104.667 -57.667 156.999 -173 156.999c-153.333 0 -255 -93.667 -305 -281
c-14 -51.333 -21 -96.333 -21 -135c0 -115.333 56 -173 168 -173c40.667 0 79 9 115 27s67 41.833 93 71.5s48.333 63.334 67 101.001s32.667 76.5 42 116.5s14 78.667 14 116z" />
    <glyph glyph-name="Otilde" unicode="&#xd5;" horiz-adv-x="792" 
d="M673 965c-9.33301 -26.667 -24.332 -50.167 -44.999 -70.5s-43.667 -30.5 -69 -30.5c-20.667 0 -43 6.33301 -67 19s-39 19 -45 19c-14.667 0 -29.334 -14 -44.001 -42h-56c8 25.333 22.833 48.5 44.5 69.5s44.834 31.5 69.501 31.5c20.667 0 43.167 -6.33301 67.5 -19
s39.166 -19 44.499 -19c14.667 0 29 14 43 42h57zM782.001 517c0 -62 -11.502 -124.664 -34.502 -187.997s-54.333 -120.333 -94 -171s-88.5 -92 -146.5 -124s-119.333 -48 -184 -48c-80.667 0 -142.5 22.667 -185.5 68s-64.5 108.333 -64.5 189
c0 65.333 11 128.666 33 189.999s52.333 115.666 91 162.999s86.834 85.5 144.501 114.5s119.834 43.5 186.501 43.5c80 0 142.333 -19.833 187 -59.5s67 -98.834 67 -177.501zM676.999 508.003c0 104.667 -57.667 156.999 -173 156.999c-153.333 0 -255 -93.667 -305 -281
c-14 -51.333 -21 -96.333 -21 -135c0 -115.333 56 -173 168 -173c40.667 0 79 9 115 27s67 41.833 93 71.5s48.333 63.334 67 101.001s32.667 76.5 42 116.5s14 78.667 14 116z" />
    <glyph glyph-name="Odieresis" unicode="&#xd6;" horiz-adv-x="792" 
d="M690 965l-25 -95h-93l26 95h92zM485 965l-25 -95h-92l25 95h92zM782 517c0 -62 -11.502 -124.664 -34.502 -187.997s-54.333 -120.333 -94 -171s-88.5 -92 -146.5 -124s-119.333 -48 -184 -48c-80.667 0 -142.5 22.667 -185.5 68s-64.5 108.333 -64.5 189
c0 65.333 11 128.666 33 189.999s52.333 115.666 91 162.999s86.834 85.5 144.501 114.5s119.834 43.5 186.501 43.5c80 0 142.333 -19.833 187 -59.5s67 -98.834 67 -177.501zM676.998 508.003c0 104.667 -57.667 156.999 -173 156.999c-153.333 0 -255 -93.667 -305 -281
c-14 -51.333 -21 -96.333 -21 -135c0 -115.333 56 -173 168 -173c40.667 0 79 9 115 27s67 41.833 93 71.5s48.333 63.334 67 101.001s32.667 76.5 42 116.5s14 78.667 14 116z" />
    <glyph glyph-name="multiply" unicode="&#xd7;" horiz-adv-x="1024" 
d="M788 71l-39 -40l-237 237l-237 -237l-39 40l235 236l-235 237l39 40l237 -238l237 238l39 -40l-235 -237z" />
    <glyph glyph-name="Oslash" unicode="&#xd8;" horiz-adv-x="793" 
d="M871 786l-122.002 -131.999c22 -36 33 -81.333 33 -136c0 -84 -19.167 -166.5 -57.5 -247.5s-93.5 -148.667 -165.5 -203s-150.667 -81.5 -236 -81.5c-65.333 0 -118.333 14.667 -159 44l-125 -133l-64 50l135 143c-24.667 41.333 -37 92 -37 152
c0 65.333 11 128.666 33 189.999s52.333 115.833 91 163.5s86.834 86 144.501 115s119.834 43.5 186.501 43.5c67.333 0 122 -13.667 164 -41l116 124zM620.998 636.001c-30 19.333 -69 28.999 -117 28.999c-153.333 0 -255 -93.667 -305 -281
c-14 -47.333 -21 -92.666 -21 -135.999c0 -29.333 3.33301 -54 10 -74zM675.998 508c0 22.667 -2.66895 43 -8.00195 61l-432 -463c26.667 -20 63.334 -30 110.001 -30c50.667 0 97.334 13.667 140.001 41s77.5 62.5 104.5 105.5s48 89.5 63 139.5s22.5 98.667 22.5 146z
" />
    <glyph glyph-name="Ugrave" unicode="&#xd9;" horiz-adv-x="754" 
d="M532 841h-62l-96 175h103zM800 739l-110.001 -409.001c-15.333 -56 -32.833 -104 -52.5 -144s-44.5 -75.667 -74.5 -107s-66.667 -54.666 -110 -69.999s-93.666 -23 -150.999 -23c-72.667 0 -128.834 13.5 -168.501 40.5s-59.5 74.833 -59.5 143.5
c0 44.667 8.33301 98 25 160l110 409h103l-109 -409c-14 -48 -21 -90.333 -21 -127c0 -47.333 12 -80.333 36 -99s60 -28 108 -28c74.667 0 131.334 21.667 170.001 65s69 106.333 91 189l109 409h104z" />
    <glyph glyph-name="Uacute" unicode="&#xda;" horiz-adv-x="754" 
d="M660 1016l-190 -175h-62l149 175h103zM800 739l-110.001 -409.001c-15.333 -56 -32.833 -104 -52.5 -144s-44.5 -75.667 -74.5 -107s-66.667 -54.666 -110 -69.999s-93.666 -23 -150.999 -23c-72.667 0 -128.834 13.5 -168.501 40.5s-59.5 74.833 -59.5 143.5
c0 44.667 8.33301 98 25 160l110 409h103l-109 -409c-14 -48 -21 -90.333 -21 -127c0 -47.333 12 -80.333 36 -99s60 -28 108 -28c74.667 0 131.334 21.667 170.001 65s69 106.333 91 189l109 409h104z" />
    <glyph glyph-name="Ucircumflex" unicode="&#xdb;" horiz-adv-x="754" 
d="M618 841h-61l-56 112l-118 -112h-61l139 174h112zM800 739l-110.001 -409.001c-15.333 -56 -32.833 -104 -52.5 -144s-44.5 -75.667 -74.5 -107s-66.667 -54.666 -110 -69.999s-93.666 -23 -150.999 -23c-72.667 0 -128.834 13.5 -168.501 40.5s-59.5 74.833 -59.5 143.5
c0 44.667 8.33301 98 25 160l110 409h103l-109 -409c-14 -48 -21 -90.333 -21 -127c0 -47.333 12 -80.333 36 -99s60 -28 108 -28c74.667 0 131.334 21.667 170.001 65s69 106.333 91 189l109 409h104z" />
    <glyph glyph-name="Udieresis" unicode="&#xdc;" horiz-adv-x="754" 
d="M670 951l-26 -94h-92l26 94h92zM465 951l-26 -94h-92l26 94h92zM800 739l-110.001 -409.001c-15.333 -56 -32.833 -104 -52.5 -144s-44.5 -75.667 -74.5 -107s-66.667 -54.666 -110 -69.999s-93.666 -23 -150.999 -23c-72.667 0 -128.834 13.5 -168.501 40.5
s-59.5 74.833 -59.5 143.5c0 44.667 8.33301 98 25 160l110 409h103l-109 -409c-14 -48 -21 -90.333 -21 -127c0 -47.333 12 -80.333 36 -99s60 -28 108 -28c74.667 0 131.334 21.667 170.001 65s69 106.333 91 189l109 409h104z" />
    <glyph glyph-name="Yacute" unicode="&#xdd;" horiz-adv-x="681" 
d="M637 1017l-191 -175h-62l150 175h103zM794 739l-395 -445l-78 -294h-104l79 294l-154 445h126l111 -355l298 355h117z" />
    <glyph glyph-name="Thorn" unicode="&#xde;" horiz-adv-x="637" 
d="M620 459c0 -18 -3.66797 -41.668 -11.001 -71.001c-8.66699 -31.333 -20 -59 -34 -83s-30 -43.5 -48 -58.5s-38 -27.5 -60 -37.5s-45 -17.167 -69 -21.5s-49.167 -7.66602 -75.5 -9.99902s-53 -3.16602 -80 -2.49902s-54.167 0.666992 -81.5 0l-47 -175h-104l199 739h103
l-37 -138c8 0 23.333 0.333008 46 1s41.167 1 55.5 1s33 -0.833008 56 -2.5s42.167 -4 57.5 -7s31.833 -8 49.5 -15s31.834 -15.667 42.501 -26s19.667 -23.333 27 -39s11 -33.834 11 -54.501zM515.999 428.999c0 18.667 -5 34.167 -15 46.5s-24.167 20.833 -42.5 25.5
s-34.5 7.66699 -48.5 9s-31 2 -51 2h-108l-66 -247h109c29.333 0 56.333 2.5 81 7.5s48 13.167 70 24.5s39.333 28.333 52 51s19 49.667 19 81z" />
    <glyph glyph-name="germandbls" unicode="&#xdf;" 
d="M582 635c0 -26 -6.83105 -50.335 -20.498 -73.002s-30.334 -41.667 -50.001 -57s-39.5 -29.333 -59.5 -42s-36.833 -25.167 -50.5 -37.5s-20.5 -24.166 -20.5 -35.499c0 -9.33301 6 -18.5 18 -27.5s26.667 -18 44 -27s34.666 -19 51.999 -30s32 -25.667 44 -44
s18 -39.166 18 -62.499c0 -66 -24.167 -117.833 -72.5 -155.5s-105.166 -56.5 -170.499 -56.5c-38 0 -71 11.667 -99 35s-42 54.333 -42 93c0 7.33301 1.33301 17 4 29h95c-0.666992 -2 -1 -5.33301 -1 -10c0 -50 29 -75 87 -75c29.333 0 54.166 11.333 74.499 34
s30.5 49.334 30.5 80.001c0 19.333 -9.33301 37.166 -28 53.499s-39.167 29.5 -61.5 39.5s-42.833 24.333 -61.5 43s-28 40 -28 64s6.66699 45.167 20 63.5s29.333 33.333 48 45s37.334 22.667 56.001 33s34.667 22.333 48 36s20 28.834 20 45.501
c0 26 -6.5 46.167 -19.5 60.5s-31.833 21.5 -56.5 21.5c-35.333 0 -70.833 -9.5 -106.5 -28.5s-57.834 -44.5 -66.501 -76.5l-153 -573h-92l159 596c12 42.667 45.667 79.5 101 110.5s106.666 46.5 153.999 46.5c21.333 0 41.833 -1.66699 61.5 -5s39.334 -9 59.001 -17
s35.5 -20.333 47.5 -37s18 -36.334 18 -59.001z" />
    <glyph glyph-name="agrave" unicode="&#xe0;" horiz-adv-x="565" 
d="M457 604h-63l-96 175h103zM527 431c0 -38.667 -16.333 -110.167 -49 -214.5s-47.334 -176.5 -44.001 -216.5h-92c2.66699 33.333 5.66699 58.333 9 75c-32.667 -30.667 -61.667 -53 -87 -67s-56.333 -21 -93 -21c-40.667 0 -77.667 9.83301 -111 29.5
s-50 48.167 -50 85.5c0 10.667 1.66699 21.667 5 33c9.33301 35.333 25 65.333 47 90s45 43.167 69 55.5s54.5 21.833 91.5 28.5s68.167 10.5 93.5 11.5s57.666 1.5 96.999 1.5c11.333 25.333 17 47 17 65c0 24.667 -8.66699 42.5 -26 53.5s-39 16.5 -65 16.5
c-32 0 -61 -6.83301 -87 -20.5s-42.667 -34.5 -50 -62.5h-96c14.667 53.333 44.334 91.833 89.001 115.5s97.334 35.5 158.001 35.5c116 0 174 -31.333 174 -94zM393 252c-34 2 -51.333 3.00098 -52 3.00098c-23.333 0 -47 -2.16699 -71 -6.5s-48.667 -11 -74 -20
s-46 -22.833 -62 -41.5s-24 -40.334 -24 -65.001c0 -21.333 7.83301 -37.833 23.5 -49.5s34.5 -17.5 56.5 -17.5c58.667 0 103 17.167 133 51.5s53.333 82.833 70 145.5z" />
    <glyph glyph-name="aacute" unicode="&#xe1;" horiz-adv-x="565" 
d="M553 790l-191 -176h-62l150 176h103zM527 431c0 -38.667 -16.333 -110.167 -49 -214.5s-47.334 -176.5 -44.001 -216.5h-92c2.66699 33.333 5.66699 58.333 9 75c-32.667 -30.667 -61.667 -53 -87 -67s-56.333 -21 -93 -21c-40.667 0 -77.667 9.83301 -111 29.5
s-50 48.167 -50 85.5c0 10.667 1.66699 21.667 5 33c9.33301 35.333 25 65.333 47 90s45 43.167 69 55.5s54.5 21.833 91.5 28.5s68.167 10.5 93.5 11.5s57.666 1.5 96.999 1.5c11.333 25.333 17 47 17 65c0 24.667 -8.66699 42.5 -26 53.5s-39 16.5 -65 16.5
c-32 0 -61 -6.83301 -87 -20.5s-42.667 -34.5 -50 -62.5h-96c14.667 53.333 44.334 91.833 89.001 115.5s97.334 35.5 158.001 35.5c116 0 174 -31.333 174 -94zM393 252c-34 2 -51.333 3.00098 -52 3.00098c-23.333 0 -47 -2.16699 -71 -6.5s-48.667 -11 -74 -20
s-46 -22.833 -62 -41.5s-24 -40.334 -24 -65.001c0 -21.333 7.83301 -37.833 23.5 -49.5s34.5 -17.5 56.5 -17.5c58.667 0 103 17.167 133 51.5s53.333 82.833 70 145.5z" />
    <glyph glyph-name="acircumflex" unicode="&#xe2;" horiz-adv-x="565" 
d="M522 614h-61l-57 113l-117 -113h-62l140 174h112zM527 431c0 -38.667 -16.333 -110.167 -49 -214.5s-47.334 -176.5 -44.001 -216.5h-92c2.66699 33.333 5.66699 58.333 9 75c-32.667 -30.667 -61.667 -53 -87 -67s-56.333 -21 -93 -21
c-40.667 0 -77.667 9.83301 -111 29.5s-50 48.167 -50 85.5c0 10.667 1.66699 21.667 5 33c9.33301 35.333 25 65.333 47 90s45 43.167 69 55.5s54.5 21.833 91.5 28.5s68.167 10.5 93.5 11.5s57.666 1.5 96.999 1.5c11.333 25.333 17 47 17 65
c0 24.667 -8.66699 42.5 -26 53.5s-39 16.5 -65 16.5c-32 0 -61 -6.83301 -87 -20.5s-42.667 -34.5 -50 -62.5h-96c14.667 53.333 44.334 91.833 89.001 115.5s97.334 35.5 158.001 35.5c116 0 174 -31.333 174 -94zM393 252c-34 2 -51.333 3.00098 -52 3.00098
c-23.333 0 -47 -2.16699 -71 -6.5s-48.667 -11 -74 -20s-46 -22.833 -62 -41.5s-24 -40.334 -24 -65.001c0 -21.333 7.83301 -37.833 23.5 -49.5s34.5 -17.5 56.5 -17.5c58.667 0 103 17.167 133 51.5s53.333 82.833 70 145.5z" />
    <glyph glyph-name="atilde" unicode="&#xe3;" horiz-adv-x="565" 
d="M558 739c-8.66699 -26 -23.5 -49.167 -44.5 -69.5s-44.167 -30.5 -69.5 -30.5c-20.667 0 -43 6.33301 -67 19s-38.667 19 -44 19c-15.333 0 -30 -14 -44 -42h-57c8.66699 25.333 23.667 48.333 45 69s44.333 31 69 31c20.667 0 43.167 -6.33301 67.5 -19
s39.5 -19 45.5 -19c14 0 28.333 14 43 42h56zM527 431c0 -38.667 -16.333 -110.167 -49 -214.5s-47.334 -176.5 -44.001 -216.5h-92c2.66699 33.333 5.66699 58.333 9 75c-32.667 -30.667 -61.667 -53 -87 -67s-56.333 -21 -93 -21c-40.667 0 -77.667 9.83301 -111 29.5
s-50 48.167 -50 85.5c0 10.667 1.66699 21.667 5 33c9.33301 35.333 25 65.333 47 90s45 43.167 69 55.5s54.5 21.833 91.5 28.5s68.167 10.5 93.5 11.5s57.666 1.5 96.999 1.5c11.333 25.333 17 47 17 65c0 24.667 -8.66699 42.5 -26 53.5s-39 16.5 -65 16.5
c-32 0 -61 -6.83301 -87 -20.5s-42.667 -34.5 -50 -62.5h-96c14.667 53.333 44.334 91.833 89.001 115.5s97.334 35.5 158.001 35.5c116 0 174 -31.333 174 -94zM393 252c-34 2 -51.333 3.00098 -52 3.00098c-23.333 0 -47 -2.16699 -71 -6.5s-48.667 -11 -74 -20
s-46 -22.833 -62 -41.5s-24 -40.334 -24 -65.001c0 -21.333 7.83301 -37.833 23.5 -49.5s34.5 -17.5 56.5 -17.5c58.667 0 103 17.167 133 51.5s53.333 82.833 70 145.5z" />
    <glyph glyph-name="adieresis" unicode="&#xe4;" horiz-adv-x="565" 
d="M558 739l-26 -94h-92l26 94h92zM353 739l-25 -94h-92l25 94h92zM527 431c0 -38.667 -16.333 -110.167 -49 -214.5s-47.334 -176.5 -44.001 -216.5h-92c2.66699 33.333 5.66699 58.333 9 75c-32.667 -30.667 -61.667 -53 -87 -67s-56.333 -21 -93 -21
c-40.667 0 -77.667 9.83301 -111 29.5s-50 48.167 -50 85.5c0 10.667 1.66699 21.667 5 33c9.33301 35.333 25 65.333 47 90s45 43.167 69 55.5s54.5 21.833 91.5 28.5s68.167 10.5 93.5 11.5s57.666 1.5 96.999 1.5c11.333 25.333 17 47 17 65
c0 24.667 -8.66699 42.5 -26 53.5s-39 16.5 -65 16.5c-32 0 -61 -6.83301 -87 -20.5s-42.667 -34.5 -50 -62.5h-96c14.667 53.333 44.334 91.833 89.001 115.5s97.334 35.5 158.001 35.5c116 0 174 -31.333 174 -94zM393 252c-34 2 -51.333 3.00098 -52 3.00098
c-23.333 0 -47 -2.16699 -71 -6.5s-48.667 -11 -74 -20s-46 -22.833 -62 -41.5s-24 -40.334 -24 -65.001c0 -21.333 7.83301 -37.833 23.5 -49.5s34.5 -17.5 56.5 -17.5c58.667 0 103 17.167 133 51.5s53.333 82.833 70 145.5z" />
    <glyph glyph-name="aring" unicode="&#xe5;" horiz-adv-x="565" 
d="M523 757c0 -36.667 -15.333 -69.667 -46 -99s-64.334 -44 -101.001 -44c-24.667 0 -45.167 7.66699 -61.5 23s-24.5 35.333 -24.5 60c0 36.667 15.167 69.667 45.5 99s63.833 44 100.5 44c24.667 0 45.334 -7.66699 62.001 -23s25 -35.333 25 -60zM527 431
c0 -38.667 -16.333 -110.167 -49 -214.5s-47.334 -176.5 -44.001 -216.5h-92c2.66699 33.333 5.66699 58.333 9 75c-32.667 -30.667 -61.667 -53 -87 -67s-56.333 -21 -93 -21c-40.667 0 -77.667 9.83301 -111 29.5s-50 48.167 -50 85.5c0 10.667 1.66699 21.667 5 33
c9.33301 35.333 25 65.333 47 90s45 43.167 69 55.5s54.5 21.833 91.5 28.5s68.167 10.5 93.5 11.5s57.666 1.5 96.999 1.5c11.333 25.333 17 47 17 65c0 24.667 -8.66699 42.5 -26 53.5s-39 16.5 -65 16.5c-32 0 -61 -6.83301 -87 -20.5s-42.667 -34.5 -50 -62.5h-96
c14.667 53.333 44.334 91.833 89.001 115.5s97.334 35.5 158.001 35.5c116 0 174 -31.333 174 -94zM480 745c0 16 -5.16699 29 -15.5 39s-23.5 15 -39.5 15c-23.333 0 -44.666 -9.16699 -63.999 -27.5s-29 -39.166 -29 -62.499c0 -16 5.16699 -29 15.5 -39
s23.5 -15 39.5 -15c23.333 0 44.666 9.16699 63.999 27.5s29 39.166 29 62.499zM393 252c-34 2 -51.333 3.00098 -52 3.00098c-23.333 0 -47 -2.16699 -71 -6.5s-48.667 -11 -74 -20s-46 -22.833 -62 -41.5s-24 -40.334 -24 -65.001c0 -21.333 7.83301 -37.833 23.5 -49.5
s34.5 -17.5 56.5 -17.5c58.667 0 103 17.167 133 51.5s53.333 82.833 70 145.5z" />
    <glyph glyph-name="ae" unicode="&#xe6;" horiz-adv-x="932" 
d="M898 362c0 -30.667 -7.33203 -70.0068 -21.999 -118.007h-368c-6.66699 -28 -10 -53.333 -10 -76c0 -74 32.667 -111 98 -111c69.333 0 121.666 34.667 156.999 104h92c-20.667 -53.333 -53 -95.666 -97 -126.999s-94 -47 -150 -47c-50 0 -91 11.667 -123 35
s-46.333 59 -43 107c-54.667 -94.667 -141.667 -142 -261 -142c-27.333 0 -52.166 3.16699 -74.499 9.5s-42.166 18.333 -59.499 36s-26 40.167 -26 67.5c0 9.33301 2 22 6 38c17.333 64.667 53.833 110.834 109.5 138.501s120.834 41.5 195.501 41.5c12 0 30 -1 54 -3
s42.333 -3 55 -3c4.66699 21.333 7 39.333 7 54c0 30.667 -8.83301 53.5 -26.5 68.5s-41.834 22.5 -72.501 22.5c-76.667 0 -121.334 -24.667 -134.001 -74h-95c7.33301 28.667 19.333 52.834 36 72.501s37.167 34.334 61.5 44.001s48.5 16.334 72.5 20.001s51 5.5 81 5.5
c46.667 0 82.167 -9.66699 106.5 -29s38.833 -51.666 43.5 -96.999c29.333 46.667 61 79.334 95 98.001s78.333 28 133 28c51.333 0 90.666 -14.333 117.999 -43s41 -68.667 41 -120zM805.001 365.993c0 62 -32.667 92.999 -98 92.999c-42.667 0 -78.667 -13.667 -108 -41
s-52 -62.666 -68 -105.999h269c3.33301 20 5 38 5 54zM420.001 248.992c-22 2 -43.3311 3 -63.998 3c-24 0 -48.333 -1.66699 -73 -5s-51 -9 -79 -17s-50.833 -21 -68.5 -39s-26.5 -39.667 -26.5 -65c0 -23.333 10 -40.333 30 -51s43 -16 69 -16
c57.333 0 103.666 17 138.999 51s59.666 80.333 72.999 139z" />
    <glyph glyph-name="ccedilla" unicode="&#xe7;" horiz-adv-x="533" 
d="M513 414c0 -17.333 -4.33008 -38.333 -12.9971 -63h-91c6.66699 15.333 10 29 10 41c0 24 -11 40.667 -33 50s-46.667 14 -74 14c-30 0 -57.5 -10.833 -82.5 -32.5s-44.833 -48.667 -59.5 -81s-26 -65 -34 -98s-12 -62.833 -12 -89.5c0 -66 32.667 -99 98 -99
c34.667 0 65.167 11 91.5 33s44.166 50 53.499 84h91c-16 -59.333 -46.167 -105 -90.5 -137s-97.833 -48.333 -160.5 -49l-10 -38c85.333 0 128 -26.667 128 -80c0 -28 -10.833 -51.333 -32.5 -70s-45.5 -31.334 -71.5 -38.001s-53 -10 -81 -10
c-24.667 0 -56.334 3 -95.001 9l13 52c38 -8.66699 73.333 -13 106 -13c58 0 87 17 87 51c0 20 -12 33.333 -36 40s-48.333 9.33398 -73 8.00098l24 91c-90 10 -135 60.333 -135 151c0 34 5.66699 72.667 17 116c23.333 85.333 57.333 151.5 102 198.5
s107.334 70.5 188.001 70.5c21.333 0 41.166 -1.5 59.499 -4.5s36.666 -8.16699 54.999 -15.5s33 -18.833 44 -34.5s16.5 -34.5 16.5 -56.5z" />
    <glyph glyph-name="egrave" unicode="&#xe8;" horiz-adv-x="570" 
d="M438 614h-62l-96 176h103zM538 373c0 -42 -9.33594 -85.668 -28.0029 -131.001h-366c-8.66699 -33.333 -13 -61 -13 -83c0 -70.667 32.667 -106 98 -106c36.667 0 69.334 9.83301 98.001 29.5s49.334 46.5 62.001 80.5h99c-26 -56 -63.167 -99.333 -111.5 -130
s-103.5 -46 -165.5 -46c-56.667 0 -100 15.833 -130 47.5s-45 75.834 -45 132.501c0 93.333 31.333 176.333 94 249s139.667 109 231 109c54.667 0 97.834 -12.333 129.501 -37s47.5 -63 47.5 -115zM441.997 374.999c0 29.333 -9.33203 50.834 -27.999 64.501
s-43.334 20.5 -74.001 20.5c-41.333 0 -76.833 -14.333 -106.5 -43s-53.5 -65 -71.5 -109h266c9.33301 25.333 14 47.666 14 66.999z" />
    <glyph glyph-name="eacute" unicode="&#xe9;" horiz-adv-x="570" 
d="M568 790l-190 -176h-63l150 176h103zM538 373c0 -42 -9.33594 -85.668 -28.0029 -131.001h-366c-8.66699 -33.333 -13 -61 -13 -83c0 -70.667 32.667 -106 98 -106c36.667 0 69.334 9.83301 98.001 29.5s49.334 46.5 62.001 80.5h99c-26 -56 -63.167 -99.333 -111.5 -130
s-103.5 -46 -165.5 -46c-56.667 0 -100 15.833 -130 47.5s-45 75.834 -45 132.501c0 93.333 31.333 176.333 94 249s139.667 109 231 109c54.667 0 97.834 -12.333 129.501 -37s47.5 -63 47.5 -115zM441.997 374.999c0 29.333 -9.33203 50.834 -27.999 64.501
s-43.334 20.5 -74.001 20.5c-41.333 0 -76.833 -14.333 -106.5 -43s-53.5 -65 -71.5 -109h266c9.33301 25.333 14 47.666 14 66.999z" />
    <glyph glyph-name="ecircumflex" unicode="&#xea;" horiz-adv-x="570" 
d="M525 614h-61l-56 113l-118 -113h-62l140 174h112zM538 373c0 -42 -9.33594 -85.668 -28.0029 -131.001h-366c-8.66699 -33.333 -13 -61 -13 -83c0 -70.667 32.667 -106 98 -106c36.667 0 69.334 9.83301 98.001 29.5s49.334 46.5 62.001 80.5h99
c-26 -56 -63.167 -99.333 -111.5 -130s-103.5 -46 -165.5 -46c-56.667 0 -100 15.833 -130 47.5s-45 75.834 -45 132.501c0 93.333 31.333 176.333 94 249s139.667 109 231 109c54.667 0 97.834 -12.333 129.501 -37s47.5 -63 47.5 -115zM441.997 374.999
c0 29.333 -9.33203 50.834 -27.999 64.501s-43.334 20.5 -74.001 20.5c-41.333 0 -76.833 -14.333 -106.5 -43s-53.5 -65 -71.5 -109h266c9.33301 25.333 14 47.666 14 66.999z" />
    <glyph glyph-name="edieresis" unicode="&#xeb;" horiz-adv-x="570" 
d="M559 739l-25 -94h-93l26 94h92zM354 739l-25 -94h-92l25 94h92zM538 373c0 -42 -9.33594 -85.668 -28.0029 -131.001h-366c-8.66699 -33.333 -13 -61 -13 -83c0 -70.667 32.667 -106 98 -106c36.667 0 69.334 9.83301 98.001 29.5s49.334 46.5 62.001 80.5h99
c-26 -56 -63.167 -99.333 -111.5 -130s-103.5 -46 -165.5 -46c-56.667 0 -100 15.833 -130 47.5s-45 75.834 -45 132.501c0 93.333 31.333 176.333 94 249s139.667 109 231 109c54.667 0 97.834 -12.333 129.501 -37s47.5 -63 47.5 -115zM441.997 374.999
c0 29.333 -9.33203 50.834 -27.999 64.501s-43.334 20.5 -74.001 20.5c-41.333 0 -76.833 -14.333 -106.5 -43s-53.5 -65 -71.5 -109h266c9.33301 25.333 14 47.666 14 66.999z" />
    <glyph glyph-name="igrave" unicode="&#xec;" horiz-adv-x="235" 
d="M273 614h-62l-96 176h103zM229 512l-137 -512h-92l137 512h92z" />
    <glyph glyph-name="iacute" unicode="&#xed;" horiz-adv-x="235" 
d="M401 790l-190 -176h-63l150 176h103zM229 512l-137 -512h-92l137 512h92z" />
    <glyph glyph-name="icircumflex" unicode="&#xee;" horiz-adv-x="235" 
d="M359 614h-61l-56 113l-118 -113h-62l140 174h112zM229 512l-137 -512h-92l137 512h92z" />
    <glyph glyph-name="idieresis" unicode="&#xef;" horiz-adv-x="235" 
d="M393 739l-25 -94h-93l26 94h92zM188 739l-25 -94h-92l25 94h92zM229 512l-137 -512h-92l137 512h92z" />
    <glyph glyph-name="eth" unicode="&#xf0;" horiz-adv-x="602" 
d="M586 707l-157 -65.001c42 -25.333 75 -63.333 99 -114s36 -102 36 -154c0 -66.667 -13.167 -129.167 -39.5 -187.5s-65.666 -106.166 -117.999 -143.499s-112.5 -56 -180.5 -56c-59.333 0 -106.166 14.167 -140.499 42.5s-51.5 71.5 -51.5 129.5
c0 64.667 13.833 124.834 41.5 180.501s67.5 100.5 119.5 134.5s110.667 51 176 51c5.33301 0 13.166 -0.166992 23.499 -0.5s18.5 -0.5 24.5 -0.5c-0.666992 14.667 -7.33398 30.167 -20.001 46.5s-26.667 30.166 -42 41.499l-196 -76l-7 44l159 63l-99 79l59 30l117 -77
l185 75zM466 335.999c0 37.333 -9.83203 66.666 -29.499 87.999s-47.834 32 -84.501 32c-42 0 -80.5 -15.333 -115.5 -46s-61.333 -67.167 -79 -109.5s-26.5 -84.166 -26.5 -125.499c0 -38 9.5 -67.333 28.5 -88s47.5 -31 85.5 -31c42.667 0 81.5 15.167 116.5 45.5
s61.167 66.5 78.5 108.5s26 84 26 126z" />
    <glyph glyph-name="ntilde" unicode="&#xf1;" horiz-adv-x="587" 
d="M569 739c-8.66699 -26 -23.333 -49.167 -44 -69.5s-43.667 -30.5 -69 -30.5c-21.333 0 -43.833 6.33301 -67.5 19s-38.5 19 -44.5 19c-15.333 0 -30 -14 -44 -42h-56c8 25.333 22.667 48.333 44 69s44.333 31 69 31c21.333 0 44 -6.33301 68 -19s39 -19 45 -19
c14 0 28.333 14 43 42h56zM546.001 408c0 -20.667 -3.66797 -44.333 -11.001 -71l-91 -337h-91c0.666992 2.66699 10.667 37.334 30 104.001s35.166 124 47.499 172s18.5 79.667 18.5 95c0 27.333 -9.16699 49.666 -27.5 66.999s-41.5 26 -69.5 26
c-38.667 0 -74.167 -12.667 -106.5 -38s-53.833 -57 -64.5 -95l-89 -331h-92l137 512h92l-17 -66c12.667 8.66699 26.334 19 41.001 31s25.834 20.833 33.501 26.5s20.167 10.667 37.5 15s39 6.5 65 6.5c104.667 0 157 -39 157 -117z" />
    <glyph glyph-name="ograve" unicode="&#xf2;" horiz-adv-x="606" 
d="M456 614h-63l-96 176h103zM566 349c0 -96 -32.667 -180.333 -98 -253s-145.333 -109 -240 -109c-58 0 -104.667 15 -140 45s-53 73.667 -53 131c0 96.667 32.5 181.167 97.5 253.5s145.167 108.5 240.5 108.5c58 0 104.667 -15 140 -45s53 -73.667 53 -131zM466 331
c0 38 -9.16797 69.001 -27.501 93.001s-46.166 36 -83.499 36c-62 0 -114.333 -30.333 -157 -91s-64 -123.334 -64 -188.001c0 -38 9.33301 -68.833 28 -92.5s46.667 -35.5 84 -35.5c41.333 0 79.5 15.167 114.5 45.5s61.333 66.5 79 108.5s26.5 83.333 26.5 124z" />
    <glyph glyph-name="oacute" unicode="&#xf3;" horiz-adv-x="606" 
d="M586 790l-191 -176h-62l149 176h104zM566 349c0 -96 -32.667 -180.333 -98 -253s-145.333 -109 -240 -109c-58 0 -104.667 15 -140 45s-53 73.667 -53 131c0 96.667 32.5 181.167 97.5 253.5s145.167 108.5 240.5 108.5c58 0 104.667 -15 140 -45s53 -73.667 53 -131z
M466 331c0 38 -9.16797 69.001 -27.501 93.001s-46.166 36 -83.499 36c-62 0 -114.333 -30.333 -157 -91s-64 -123.334 -64 -188.001c0 -38 9.33301 -68.833 28 -92.5s46.667 -35.5 84 -35.5c41.333 0 79.5 15.167 114.5 45.5s61.333 66.5 79 108.5s26.5 83.333 26.5 124z
" />
    <glyph glyph-name="ocircumflex" unicode="&#xf4;" horiz-adv-x="606" 
d="M545 614h-62l-56 113l-118 -113h-61l139 174h113zM566 349c0 -96 -32.667 -180.333 -98 -253s-145.333 -109 -240 -109c-58 0 -104.667 15 -140 45s-53 73.667 -53 131c0 96.667 32.5 181.167 97.5 253.5s145.167 108.5 240.5 108.5c58 0 104.667 -15 140 -45
s53 -73.667 53 -131zM466 331c0 38 -9.16797 69.001 -27.501 93.001s-46.166 36 -83.499 36c-62 0 -114.333 -30.333 -157 -91s-64 -123.334 -64 -188.001c0 -38 9.33301 -68.833 28 -92.5s46.667 -35.5 84 -35.5c41.333 0 79.5 15.167 114.5 45.5s61.333 66.5 79 108.5
s26.5 83.333 26.5 124z" />
    <glyph glyph-name="otilde" unicode="&#xf5;" horiz-adv-x="606" 
d="M579 739c-9.33301 -26.667 -24.3311 -50 -44.998 -70s-43.667 -30 -69 -30c-20.667 0 -43 6.33301 -67 19s-39 19 -45 19c-15.333 0 -30 -14 -44 -42h-56c8 25.333 22.667 48.333 44 69s44.666 31 69.999 31c20.667 0 43.167 -6.33301 67.5 -19s39.166 -19 44.499 -19
c14 0 28.333 14 43 42h57zM566.002 349c0 -96 -32.667 -180.333 -98 -253s-145.333 -109 -240 -109c-58 0 -104.667 15 -140 45s-53 73.667 -53 131c0 96.667 32.5 181.167 97.5 253.5s145.167 108.5 240.5 108.5c58 0 104.667 -15 140 -45s53 -73.667 53 -131zM466.002 331
c0 38 -9.16797 69.001 -27.501 93.001s-46.166 36 -83.499 36c-62 0 -114.333 -30.333 -157 -91s-64 -123.334 -64 -188.001c0 -38 9.33301 -68.833 28 -92.5s46.667 -35.5 84 -35.5c41.333 0 79.5 15.167 114.5 45.5s61.333 66.5 79 108.5s26.5 83.333 26.5 124z" />
    <glyph glyph-name="odieresis" unicode="&#xf6;" horiz-adv-x="606" 
d="M579 739l-26 -94h-92l25 94h93zM374 739l-26 -94h-92l26 94h92zM566 349c0 -96 -32.667 -180.333 -98 -253s-145.333 -109 -240 -109c-58 0 -104.667 15 -140 45s-53 73.667 -53 131c0 96.667 32.5 181.167 97.5 253.5s145.167 108.5 240.5 108.5
c58 0 104.667 -15 140 -45s53 -73.667 53 -131zM466 331c0 38 -9.16797 69.001 -27.501 93.001s-46.166 36 -83.499 36c-62 0 -114.333 -30.333 -157 -91s-64 -123.334 -64 -188.001c0 -38 9.33301 -68.833 28 -92.5s46.667 -35.5 84 -35.5c41.333 0 79.5 15.167 114.5 45.5
s61.333 66.5 79 108.5s26.5 83.333 26.5 124z" />
    <glyph glyph-name="divide" unicode="&#xf7;" horiz-adv-x="1024" 
d="M573 472c0 -17.333 -5.83301 -31.833 -17.5 -43.5s-26.167 -17.5 -43.5 -17.5s-31.833 5.83301 -43.5 17.5s-17.5 26.167 -17.5 43.5s6 32 18 44s26.333 18 43 18s31 -6 43 -18s18 -26.667 18 -44zM819 275h-614v64h614v-64zM573 142c0 -16.667 -6 -30.834 -18 -42.501
s-26.333 -17.5 -43 -17.5s-31 5.83301 -43 17.5s-18 25.834 -18 42.501c0 17.333 6 32 18 44s26.333 18 43 18s31 -6 43 -18s18 -26.667 18 -44z" />
    <glyph glyph-name="oslash" unicode="&#xf8;" horiz-adv-x="606" 
d="M644 567l-112.001 -109.999c22.667 -25.333 34 -61 34 -107c0 -96.667 -32.5 -181.334 -97.5 -254.001s-145.167 -109 -240.5 -109c-52.667 0 -96 12 -130 36l-107 -106l-42 38l112 108c-17.333 24 -26 56.667 -26 98c0 97.333 32.333 182.333 97 255s145 109 241 109
c48.667 0 88.334 -9.66699 119.001 -29l110 109zM429.999 433.001c-17.333 18 -42.333 27.001 -75 27.001c-42 0 -80.5 -15.167 -115.5 -45.5s-61.333 -66.833 -79 -109.5s-26.5 -84.334 -26.5 -125.001c0 -14 1.33301 -27.333 4 -40zM465.999 330.002
c0 21.333 -1.66602 39 -4.99902 53l-297 -298c19.333 -21.333 46.666 -32 81.999 -32c41.333 0 79.5 15 114.5 45s61.333 66 79 108s26.5 83.333 26.5 124z" />
    <glyph glyph-name="ugrave" unicode="&#xf9;" horiz-adv-x="586" 
d="M446 614h-62l-96 176h103zM581 512l-137.998 -511.999h-92l18 66c-46.667 -52.667 -105.334 -79 -176.001 -79c-104 0 -156 39 -156 117c0 22 3.33301 45.667 10 71l90 337h92c-2.66699 -11.333 -12.834 -47.333 -30.501 -108s-32.834 -115.834 -45.501 -165.501
s-19 -82.167 -19 -97.5c0 -27.333 9 -49.5 27 -66.5s40.667 -25.5 68 -25.5c38.667 0 74.334 12.833 107.001 38.5s54 57.167 64 94.5l88 330h93z" />
    <glyph glyph-name="uacute" unicode="&#xfa;" horiz-adv-x="586" 
d="M578 790l-191 -176h-62l149 176h104zM581 512l-137.998 -511.999h-92l18 66c-46.667 -52.667 -105.334 -79 -176.001 -79c-104 0 -156 39 -156 117c0 22 3.33301 45.667 10 71l90 337h92c-2.66699 -11.333 -12.834 -47.333 -30.501 -108
s-32.834 -115.834 -45.501 -165.501s-19 -82.167 -19 -97.5c0 -27.333 9 -49.5 27 -66.5s40.667 -25.5 68 -25.5c38.667 0 74.334 12.833 107.001 38.5s54 57.167 64 94.5l88 330h93z" />
    <glyph glyph-name="ucircumflex" unicode="&#xfb;" horiz-adv-x="586" 
d="M536 614h-62l-56 113l-118 -113h-61l139 174h112zM581 512l-137.998 -511.999h-92l18 66c-46.667 -52.667 -105.334 -79 -176.001 -79c-104 0 -156 39 -156 117c0 22 3.33301 45.667 10 71l90 337h92c-2.66699 -11.333 -12.834 -47.333 -30.501 -108
s-32.834 -115.834 -45.501 -165.501s-19 -82.167 -19 -97.5c0 -27.333 9 -49.5 27 -66.5s40.667 -25.5 68 -25.5c38.667 0 74.334 12.833 107.001 38.5s54 57.167 64 94.5l88 330h93z" />
    <glyph glyph-name="udieresis" unicode="&#xfc;" horiz-adv-x="586" 
d="M569 739l-25 -94h-92l25 94h92zM365 739l-26 -94h-92l25 94h93zM581 512l-137.998 -511.999h-92l18 66c-46.667 -52.667 -105.334 -79 -176.001 -79c-104 0 -156 39 -156 117c0 22 3.33301 45.667 10 71l90 337h92c-2.66699 -11.333 -12.834 -47.333 -30.501 -108
s-32.834 -115.834 -45.501 -165.501s-19 -82.167 -19 -97.5c0 -27.333 9 -49.5 27 -66.5s40.667 -25.5 68 -25.5c38.667 0 74.334 12.833 107.001 38.5s54 57.167 64 94.5l88 330h93z" />
    <glyph glyph-name="yacute" unicode="&#xfd;" horiz-adv-x="547" 
d="M575 790l-190 -176h-62l149 176h103zM598 512l-412.002 -625.999c-21.333 -32 -43.166 -55.833 -65.499 -71.5s-50.5 -23.5 -84.5 -23.5c-30.667 0 -55.667 8.16699 -75 24.5s-31.666 39.166 -36.999 68.499l83 38c1.33301 -12.667 6.66602 -24.167 15.999 -34.5
s20.333 -15.5 33 -15.5c14.667 0 34.834 18.333 60.501 55s41.167 61 46.5 73l-82 512h107l58 -386l253 386h99z" />
    <glyph glyph-name="thorn" unicode="&#xfe;" horiz-adv-x="613" 
d="M575 362c0 -64 -12.668 -124.167 -38.001 -180.5s-63.166 -103 -113.499 -140s-107.833 -55.5 -172.5 -55.5c-52 0 -100.333 22.333 -145 67l-68 -256h-92l253 942h92l-79 -292c70 52 131 78 183 78c120 0 180 -54.333 180 -163zM472.999 340
c0 37.333 -8.83301 66.666 -26.5 87.999s-44.5 32 -80.5 32c-43.333 0 -82.333 -16 -117 -48s-60.334 -69.667 -77.001 -113s-25 -85.666 -25 -126.999c0 -37.333 9 -66.666 27 -87.999s45.333 -32 82 -32c42.667 0 81.334 16 116.001 48s60.167 69.667 76.5 113
s24.5 85.666 24.5 126.999z" />
    <glyph glyph-name="ydieresis" unicode="&#xff;" horiz-adv-x="547" 
d="M163 0l-82.001 512h107l58 -386l253 386h99l-412 -626l-59 -89h-95c78.667 123.333 122.334 191 131.001 203zM549.999 739l-26 -94h-92l26 94h92zM344.999 739l-26 -94h-92l26 94h92z" />
    <glyph glyph-name="dotlessi" unicode="&#x131;" horiz-adv-x="235" 
d="M229 512l-137 -512h-92l137 512h92z" />
    <glyph glyph-name="Lslash" unicode="&#x141;" horiz-adv-x="605" 
d="M527 89l-24 -89h-430l83 307l-138 -106l22 81l137 107l94 350h104l-67 -249l137 108l-22 -84l-137 -106l-85 -319h326z" />
    <glyph glyph-name="lslash" unicode="&#x142;" horiz-adv-x="352" 
d="M400 579l-22 -84l-119 -93l-108 -402h-93l84 312l-118 -92l21 81l119 93l93 345h92l-68 -254z" />
    <glyph glyph-name="OE" unicode="&#x152;" horiz-adv-x="1029" 
d="M1095 739l-25 -89.001h-317l-61 -227h297l-23 -89h-297l-66 -245h318l-25 -89h-475c-10.667 0 -27.167 -2.33301 -49.5 -7s-39.166 -7 -50.499 -7c-78.667 0 -139.834 23.167 -183.501 69.5s-65.5 108.833 -65.5 187.5c0 60 11.667 120.5 35 181.5
s54.833 115.833 94.5 164.5s88.167 88.334 145.5 119.001s117 46 179 46c13.333 0 32.5 -2.5 57.5 -7.5s41.5 -7.5 49.5 -7.5h462zM641 615.999c-16.667 14.667 -38.168 26.5 -64.501 35.5s-51.166 13.5 -74.499 13.5c-63.333 0 -120.5 -22.167 -171.5 -66.5
s-89.167 -97.5 -114.5 -159.5s-38 -123.667 -38 -185c0 -56 13.833 -99.667 41.5 -131s69.167 -47 124.5 -47c28.667 0 58.667 5 90 15s57 24 77 42z" />
    <glyph glyph-name="oe" unicode="&#x153;" horiz-adv-x="958" 
d="M924 368c0 -36.667 -8.33398 -78.667 -25.001 -126h-378c-6 -22 -9 -44.333 -9 -67c0 -37.333 8.83301 -67 26.5 -89s44.834 -33 81.501 -33c35.333 0 67.833 10 97.5 30s50.167 46.667 61.5 80h100c-22 -54 -58.833 -96.833 -110.5 -128.5s-107.5 -47.5 -167.5 -47.5
c-102.667 0 -155.667 41.333 -159 124c-54 -82.667 -128.667 -124 -224 -124c-56.667 0 -101.5 14.5 -134.5 43.5s-49.5 71.5 -49.5 127.5c0 96.667 31.167 182 93.5 256s140.5 111 234.5 111c98 0 153.333 -36.333 166 -109c31.333 37.333 64.5 64.833 99.5 82.5
s76.5 26.5 124.5 26.5c54 0 96.167 -13 126.5 -39s45.5 -65.333 45.5 -118zM827.999 373c0 58 -32.666 87 -97.999 87c-41.333 0 -80.833 -15.167 -118.5 -45.5s-61.834 -65.833 -72.501 -106.5h279c6.66699 23.333 10 45 10 65zM450 340c0 36.667 -8.5 65.833 -25.5 87.5
s-43.5 32.5 -79.5 32.5c-42 0 -79.833 -16.333 -113.5 -49s-58.667 -70.667 -75 -114s-24.5 -85.333 -24.5 -126c0 -36 8.5 -64.667 25.5 -86s43.167 -32 78.5 -32c42 0 80 16 114 48s59.167 69.5 75.5 112.5s24.5 85.167 24.5 126.5z" />
    <glyph glyph-name="Scaron" unicode="&#x160;" horiz-adv-x="677" 
d="M628 1016l-140 -174h-112l-45 174h61l57 -113l117 113h62zM672 609c0 -18 -2.66895 -36.6641 -8.00195 -55.9971h-104c3.33301 12 5 24 5 36c0 17.333 -4.5 31.666 -13.5 42.999s-21.833 19.166 -38.5 23.499s-31.167 7 -43.5 8s-27.5 1.5 -45.5 1.5
c-47.333 0 -88.666 -12.5 -123.999 -37.5s-53 -60.5 -53 -106.5c0 -21.333 9 -38.833 27 -52.5s40.333 -23.167 67 -28.5s55.667 -12 87 -20s60.333 -16.5 87 -25.5s49 -24.333 67 -46s27 -48.5 27 -80.5c0 -48.667 -11.5 -91.834 -34.5 -129.501
s-53.167 -67.167 -90.5 -88.5s-77.5 -37.333 -120.5 -48s-87.167 -16 -132.5 -16c-55.333 0 -101.166 14.167 -137.499 42.5s-54.5 69.5 -54.5 123.5c0 20.667 3.33301 43.334 10 68.001h105c-4.66699 -15.333 -7 -29 -7 -41c0 -30.667 9.66699 -55.5 29 -74.5
s44.666 -28.5 75.999 -28.5c165.333 0 248 53.333 248 160c0 29.333 -12.5 51.666 -37.5 66.999s-55.167 25.833 -90.5 31.5s-70.666 12 -105.999 19s-65.5 21.167 -90.5 42.5s-37.5 51 -37.5 89c0 77.333 32.833 141.5 98.5 192.5s138.5 76.5 218.5 76.5
c26 0 50.667 -2.16699 74 -6.5s46.333 -11.5 69 -21.5s40.667 -25 54 -45s20 -44 20 -72z" />
    <glyph glyph-name="scaron" unicode="&#x161;" horiz-adv-x="515" 
d="M546 788l-139 -174h-113l-45 174h61l57 -112l117 112h62zM486 426c0 -12.667 -2.66699 -29.666 -8 -50.999h-94c2.66699 12 4 21 4 27c0 38.667 -27.333 58 -82 58c-28.667 0 -55.834 -8.83301 -81.501 -26.5s-38.5 -40.167 -38.5 -67.5c0 -17.333 8.66699 -31 26 -41
s38.333 -17.5 63 -22.5s49.5 -10.5 74.5 -16.5s46.167 -16.833 63.5 -32.5s26 -36.5 26 -62.5c0 -45.333 -14.667 -84.166 -44 -116.499s-63.833 -55 -103.5 -68s-81.5 -19.5 -125.5 -19.5s-80.667 8.33301 -110 25s-44 45 -44 85c0 15.333 2.33301 32.333 7 51h95
c-2.66699 -8.66699 -4 -19 -4 -31c0 -42.667 28.333 -64 85 -64c34 0 66.5 10 97.5 30s46.5 46 46.5 78c0 16.667 -8.66699 29.667 -26 39s-38.166 16.166 -62.499 20.499s-48.833 9.5 -73.5 15.5s-45.667 17.333 -63 34s-26 38.667 -26 66
c0 61.333 23.667 108.166 71 140.499s103 48.5 167 48.5c20.667 0 39 -1 55 -3s32.667 -6.16699 50 -12.5s30.833 -16.5 40.5 -30.5s14.5 -31.667 14.5 -53z" />
    <glyph glyph-name="Ydieresis" unicode="&#x178;" horiz-adv-x="681" 
d="M616 966l-25 -95h-92l25 95h92zM412 966l-26 -95h-92l25 95h93zM794 739l-395 -445l-78 -294h-104l79 294l-154 445h126l111 -355l298 355h117z" />
    <glyph glyph-name="Zcaron" unicode="&#x17d;" horiz-adv-x="630" 
d="M594 1016l-139 -174h-113l-45 174h61l57 -113l117 113h62zM701 739l-30 -112l-559 -538h426l-25 -89h-539l31 113l559 537h-395l25 89h507z" />
    <glyph glyph-name="zcaron" unicode="&#x17e;" horiz-adv-x="479" 
d="M513 788l-139 -174h-113l-45 174h62l56 -112l118 112h61zM494 512l-23 -85l-370 -355h275l-20 -72h-376l23 85l368 355h-252l18 72h357z" />
    <glyph glyph-name="florin" unicode="&#x192;" horiz-adv-x="516" 
d="M536 739l-19.999 -74.998c-13.333 8 -32 12 -56 12c-16 0 -30.333 -3.5 -43 -10.5s-22.834 -16.333 -30.501 -28s-14.5 -24.834 -20.5 -39.501s-10.5 -29.334 -13.5 -44.001s-6.5 -28.667 -10.5 -42h123l-18 -67h-122l-121 -448c-10 -36.667 -20 -66.5 -30 -89.5
s-23.167 -44.667 -39.5 -65s-37.166 -35.166 -62.499 -44.499s-56 -14 -92 -14c-20 0 -38.333 4.33301 -55 13l21 77c8.66699 -9.33301 22.334 -14 41.001 -14c20 0 37.167 3.5 51.5 10.5s26.166 18 35.499 33s16.5 28.833 21.5 41.5s10.5 30 16.5 52l120 448h-102l17 67
h103c3.33301 13.333 6.83301 26.166 10.5 38.499l10.5 36c3.33301 11.667 7.16602 23 11.499 34s8.83301 21.5 13.5 31.5s10 19.333 16 28s12.5 16.667 19.5 24s15.167 13.833 24.5 19.5s19.333 10.5 30 14.5s22.667 7 36 9s27.666 3 42.999 3
c28.667 0 52.334 -3.66699 71.001 -11z" />
    <glyph glyph-name="circumflex" unicode="&#x2c6;" horiz-adv-x="296" 
d="M390 614h-61l-57 113l-117 -113h-62l139 174h113z" />
    <glyph glyph-name="caron" unicode="&#x2c7;" horiz-adv-x="296" 
d="M437 788l-139 -174h-113l-45 174h62l56 -112l118 112h61z" />
    <glyph glyph-name="breve" unicode="&#x2d8;" horiz-adv-x="288" 
d="M414 734c-14.667 -34 -38.667 -62.499 -72 -85.499s-68 -34.5 -104 -34.5c-34 0 -61.333 9.66699 -82 29s-31 45.666 -31 78.999v12h53c0 -17.333 8.33301 -30.833 25 -40.5s34 -14.5 52 -14.5c19.333 0 39.833 5.16699 61.5 15.5s36.167 23.5 43.5 39.5h54z" />
    <glyph glyph-name="dotaccent" unicode="&#x2d9;" horiz-adv-x="92" 
d="M213 717l-28 -103h-92l28 103h92z" />
    <glyph glyph-name="ring" unicode="&#x2da;" horiz-adv-x="225" 
d="M353 757c0 -36.667 -15.333 -69.667 -46 -99s-64.334 -44 -101.001 -44c-24.667 0 -45.167 7.66699 -61.5 23s-24.5 35.333 -24.5 60c0 36.667 15.167 69.667 45.5 99s63.833 44 100.5 44c24.667 0 45.334 -7.66699 62.001 -23s25 -35.333 25 -60zM310 745
c0 16 -5.16699 29 -15.5 39s-23.5 15 -39.5 15c-23.333 0 -44.666 -9.16699 -63.999 -27.5s-29 -39.166 -29 -62.499c0 -16 5.16699 -29 15.5 -39s23.5 -15 39.5 -15c23.333 0 44.666 9.16699 63.999 27.5s29 39.166 29 62.499z" />
    <glyph glyph-name="ogonek" unicode="&#x2db;" horiz-adv-x="204" 
d="M51 -150l-19 -71c-33.333 -2.66699 -58 -4 -74 -4c-47.333 0 -71 19 -71 57c0 30 12.5 60 37.5 90s53.5 56 85.5 78h41c-18 -14 -36.5 -34.333 -55.5 -61s-28.5 -49 -28.5 -67c0 -17.333 14 -26 42 -26c16.667 0 30.667 1.33301 42 4z" />
    <glyph glyph-name="tilde" unicode="&#x2dc;" horiz-adv-x="296" 
d="M424 739c-8.66699 -26 -23.501 -49.167 -44.501 -69.5s-44.167 -30.5 -69.5 -30.5c-20.667 0 -43 6.33301 -67 19s-38.667 19 -44 19c-15.333 0 -30 -14 -44 -42h-57c8.66699 25.333 23.667 48.333 45 69s44.333 31 69 31c20.667 0 43.167 -6.33301 67.5 -19
s39.5 -19 45.5 -19c4.66699 0 9.33398 1.5 14.001 4.5s8.5 6.66699 11.5 11l9.5 13.5c3.33301 4.66699 6 9 8 13h56z" />
    <glyph glyph-name="hungarumlaut" unicode="&#x2dd;" horiz-adv-x="307" 
d="M447 790l-159 -176h-51l118 176h92zM304 790l-160 -176h-51l119 176h92z" />
    <glyph glyph-name="Delta" unicode="&#x394;" horiz-adv-x="654" 
d="M587 0h-644l342 735zM447 57l-200 486l-228 -486h428z" />
    <glyph glyph-name="Omega" unicode="&#x3a9;" horiz-adv-x="821" 
d="M785 0l-315.003 0.00195312l18 163c56.667 23.333 96.167 57.166 118.5 101.499s33.5 100.833 33.5 169.5c0 78 -19.167 142 -57.5 192s-95.166 75 -170.499 75c-78 0 -135.833 -24.833 -173.5 -74.5s-56.5 -114.5 -56.5 -194.5c0 -68 11.167 -124.167 33.5 -168.5
s62.166 -77.833 119.499 -100.5l17 -163h-315v163h16c4.66699 -24 11.834 -41 21.501 -51s25.834 -15 48.501 -15h169l-2 41c-155.333 46 -233 143.333 -233 292c0 93.333 35.167 167.5 105.5 222.5s153.5 82.5 249.5 82.5c100 0 183.5 -27.333 250.5 -82
s100.5 -131 100.5 -229c0 -144.667 -76.333 -240 -229 -286l-3 -41h169c22.667 0 38.834 5.16699 48.501 15.5s16.5 27.166 20.5 50.499h16v-163z" />
    <glyph glyph-name="mu" unicode="&#x3bc;" horiz-adv-x="653" 
d="M581 512l-102 -378.002c-4 -17.333 -6 -30.666 -6 -39.999c0 -24.667 11.333 -37 34 -37c26 0 48 3 66 9l-17 -66c-28 -8.66699 -54.667 -13 -80 -13c-36.667 0 -62.834 5.66699 -78.501 17s-22.834 34.333 -21.501 69c-51.333 -57.333 -112.333 -86 -183 -86
c-45.333 0 -77.666 8.66699 -96.999 26l-58 -216h-92l191 715h92c-2 -7.33301 -12.167 -42.666 -30.5 -105.999s-33.666 -119.333 -45.999 -168s-18.5 -81 -18.5 -97c0 -27.333 9 -49.5 27 -66.5s40.667 -25.5 68 -25.5c38.667 0 74.5 12.833 107.5 38.5
s54.167 57.167 63.5 94.5l88 330h93z" />
    <glyph glyph-name="pi" unicode="&#x3c0;" horiz-adv-x="586" 
d="M566 161c-1.33301 -43.333 -13.0029 -83.833 -35.0029 -121.5s-53 -56.5 -93 -56.5c-20.667 0 -38.167 7.16699 -52.5 21.5s-24.666 32.666 -30.999 54.999s-10.833 43.333 -13.5 63s-4 38.834 -4 57.501c0 39.333 7 122.666 21 249.999h-120
c-2 -29.333 -4.66699 -60.666 -8 -93.999l-10 -95.5c-3.33301 -30.333 -7.66602 -62 -12.999 -95s-11.666 -63.833 -18.999 -92.5c-11.333 -48.667 -34.666 -73 -69.999 -73c-16.667 0 -30.334 5.83301 -41.001 17.5s-16 25.834 -16 42.501c0 14 6 27.833 18 41.5
s24.667 29.167 38 46.5s21.333 36 24 56l31 246h-50c-15.333 0 -29.166 -3.66699 -41.499 -11s-21.5 -15 -27.5 -23s-14 -19.667 -24 -35h-19c4.66699 10 8.83398 20.333 12.501 31s8 21.167 13 31.5s10.333 20.166 16 29.499s12.167 18 19.5 26s15.166 15 23.499 21
s18.166 10.667 29.499 14s23.333 5 36 5h398v-89h-135c-8 -88 -12 -165 -12 -231c0 -78 23 -117 69 -117c21.333 0 36.333 7 45 21s15 33.333 19 58h22z" />
    <glyph glyph-name="endash" unicode="&#x2013;" horiz-adv-x="512" 
d="M516 282l-17 -66h-512l17 66h512z" />
    <glyph glyph-name="emdash" unicode="&#x2014;" horiz-adv-x="1024" 
d="M1028 282l-17 -66h-1024l17 66h1024z" />
    <glyph glyph-name="quoteleft" unicode="&#x2018;" horiz-adv-x="260" 
d="M349 739l-130 -256h-123l182 256h71z" />
    <glyph glyph-name="quoteright" unicode="&#x2019;" horiz-adv-x="260" 
d="M349 739l-181 -256h-72l130 256h123z" />
    <glyph glyph-name="quotesinglbase" unicode="&#x201a;" horiz-adv-x="260" 
d="M184 126l-181 -256h-72l130 256h123z" />
    <glyph glyph-name="quotedblleft" unicode="&#x201c;" horiz-adv-x="446" 
d="M537 739l-130 -256h-123l181 256h72zM349 739l-130 -256h-123l182 256h71z" />
    <glyph glyph-name="quotedblright" unicode="&#x201d;" horiz-adv-x="446" 
d="M537 739l-182 -256h-71l130 256h123zM349 739l-181 -256h-72l130 256h123z" />
    <glyph glyph-name="quotedblbase" unicode="&#x201e;" horiz-adv-x="446" 
d="M372 126l-182 -256h-71l130 256h123zM184 126l-181 -256h-72l130 256h123z" />
    <glyph glyph-name="dagger" unicode="&#x2020;" 
d="M570 436h-196l-161 -600h-85l161 600h-197l21 76h196l62 227h85l-62 -227h197z" />
    <glyph glyph-name="daggerdbl" unicode="&#x2021;" 
d="M471 63h-197l-61 -227h-85l61 227h-196l20 76h197l79 297h-197l21 76h196l62 227h85l-62 -227h197l-21 -76h-196l-79 -297h197z" />
    <glyph glyph-name="bullet" unicode="&#x2022;" horiz-adv-x="307" 
d="M295 348c0 -32.667 -11.5 -60.5 -34.5 -83.5s-50.833 -34.5 -83.5 -34.5s-60.5 11.5 -83.5 34.5s-34.5 50.833 -34.5 83.5s11.5 60.5 34.5 83.5s50.833 34.5 83.5 34.5s60.5 -11.333 83.5 -34s34.5 -50.667 34.5 -84z" />
    <glyph glyph-name="ellipsis" unicode="&#x2026;" horiz-adv-x="1024" 
d="M935 126l-34 -126h-110l33 126h111zM529 126l-33 -126h-111l34 126h110zM124 126l-34 -126h-110l33 126h111z" />
    <glyph glyph-name="perthousand" unicode="&#x2030;" horiz-adv-x="1359" 
d="M1309 193c0 -58.667 -16.333 -106.167 -49 -142.5s-77.667 -54.5 -135 -54.5s-102 18.167 -134 54.5s-48 83.833 -48 142.5c0 58 16 105.167 48 141.5s76.667 54.5 134 54.5s102.333 -18.167 135 -54.5s49 -83.5 49 -141.5zM899 193
c0 -58.667 -16.167 -106.167 -48.5 -142.5s-77.166 -54.5 -134.499 -54.5s-102 18.167 -134 54.5s-48 83.833 -48 142.5c0 58 16 105.167 48 141.5s76.667 54.5 134 54.5s102.166 -18.167 134.499 -54.5s48.5 -83.5 48.5 -141.5zM733 754l-436 -768h-71l437 768h70zM417 547
c0 -58.667 -16.333 -106.167 -49 -142.5s-77.667 -54.5 -135 -54.5s-102 18.167 -134 54.5s-48 83.833 -48 142.5c0 58 16 105.167 48 141.5s76.667 54.5 134 54.5s102.333 -18.167 135 -54.5s49 -83.5 49 -141.5zM1221 193c0 39.333 -6.83105 70.833 -20.498 94.5
s-38.834 35.5 -75.501 35.5s-61.667 -11.667 -75 -35s-20 -55 -20 -95c0 -86.667 31.667 -130 95 -130c37.333 0 62.666 11.667 75.999 35s20 55 20 95zM811.002 193c0 40 -6.66699 71.667 -20 95s-38.333 35 -75 35s-61.667 -11.667 -75 -35s-20 -55 -20 -95
s6.66699 -71.667 20 -95s38.333 -35 75 -35s61.667 11.667 75 35s20 55 20 95zM329.002 547c0 39.333 -6.83301 70.833 -20.5 94.5s-38.834 35.5 -75.501 35.5s-61.667 -11.833 -75 -35.5s-20 -55.167 -20 -94.5s6.83301 -70.666 20.5 -93.999s38.5 -35 74.5 -35
c36.667 0 61.834 11.667 75.501 35s20.5 54.666 20.5 93.999z" />
    <glyph glyph-name="guilsinglleft" unicode="&#x2039;" horiz-adv-x="370" 
d="M347 458l-176 -200l70 -200h-80l-87 200l193 200h80z" />
    <glyph glyph-name="guilsinglright" unicode="&#x203a;" horiz-adv-x="370" 
d="M294 258l-194 -200h-80l176 200l-69 200h80z" />
    <glyph glyph-name="fraction" unicode="&#x2044;" 
d="M540 754l-437 -768h-70l436 768h71z" />
    <glyph glyph-name="trademark" unicode="&#x2122;" horiz-adv-x="675" 
d="M749 730l-75 -280h-51l60 227l-140 -227h-38l-20 225l-60 -225h-51l75 280h76l17 -211l128 211h79zM394 729l-10 -38h-84l-64 -241h-52l65 241h-84l10 38h219z" />
    <glyph glyph-name="partialdiff" unicode="&#x2202;" horiz-adv-x="567" 
d="M516 420c0 -45.333 -4.16797 -91.499 -12.501 -138.499s-21.833 -94.333 -40.5 -142s-46 -86.667 -82 -117s-78.333 -45.5 -127 -45.5c-52.667 0 -99.667 18.5 -141 55.5s-62 81.833 -62 134.5c0 70 18.5 131.333 55.5 184s88.833 79 155.5 79
c22 0 43.167 -3.83301 63.5 -11.5s35.5 -15 45.5 -22s27.333 -20.167 52 -39.5c7.33301 35.333 11 79 11 131c0 40.667 -5.5 79.667 -16.5 117s-30.667 70.5 -59 99.5s-63.166 43.5 -104.499 43.5c-16 0 -30.667 -1.5 -44 -4.5s-25.333 -7.16699 -36 -12.5
s-24 -11.333 -40 -18l-42 53c48 20.667 93 31 135 31c39.333 0 75.5 -7.5 108.5 -22.5s60.333 -34.833 82 -59.5s40.167 -53.334 55.5 -86.001s26.333 -66.5 33 -101.5s10 -70.833 10 -107.5zM414.999 319.001c-14.667 16.667 -26 28.835 -34 36.502s-19.333 15 -34 22
s-31 10.5 -49 10.5c-34 0 -63.333 -13.333 -88 -40s-42.167 -56.834 -52.5 -90.501s-15.5 -66.834 -15.5 -99.501c0 -18.667 1.5 -36 4.5 -52s8.16699 -31.667 15.5 -47s18 -27.5 32 -36.5s30.667 -13.5 50 -13.5c86.667 0 143.667 103.333 171 310z" />
    <glyph glyph-name="product" unicode="&#x220f;" horiz-adv-x="879" 
d="M857 -106h-327v24c35.333 0 61.333 5.83301 78 17.5s25 34.5 25 68.5v738h-381v-738c0 -34 8.5 -56.833 25.5 -68.5s43.167 -17.5 78.5 -17.5v-24h-328v24c36 0 62.167 5.66699 78.5 17s24.5 34.333 24.5 69v667c0 34 -8.5 60.167 -25.5 78.5s-42.167 27.5 -75.5 27.5v25
h824v-25c-66.667 0 -100 -35.333 -100 -106v-667c0 -34 8.33301 -56.833 25 -68.5s42.667 -17.5 78 -17.5v-24z" />
    <glyph glyph-name="summation" unicode="&#x2211;" horiz-adv-x="761" 
d="M735 128c-22.667 -96.667 -38.001 -176.668 -46.001 -240.001c-2.66699 0.666992 -14.167 3 -34.5 7s-36.166 6 -47.499 6c-0.666992 0 -198 -1 -592 -3l369 420l-367 482c89.333 -5.33301 196.333 -8.16602 321 -8.49902s231.667 0.166992 321 1.5l14 -170h-22
c-15.333 49.333 -34 81.833 -56 97.5s-60 23.5 -114 23.5h-281l287 -378l-310 -359h389c43.333 0 73.833 8.66699 91.5 26s35.5 49 53.5 95h24z" />
    <glyph glyph-name="minus" unicode="&#x2212;" horiz-adv-x="1024" 
d="M819 275h-614v64h614v-64z" />
    <glyph glyph-name="radical" unicode="&#x221a;" horiz-adv-x="588" 
d="M589 686h-51l-186 -686h-30l-222 436l-63 -32l-17 31l120 61l200 -391l167 612h82v-31z" />
    <glyph glyph-name="infinity" unicode="&#x221e;" horiz-adv-x="1024" 
d="M852 307c0 -38 -14.1689 -71.335 -42.502 -100.002s-61.5 -43 -99.5 -43s-72.167 9.5 -102.5 28.5s-62.166 45.833 -95.499 80.5c-26 -31.333 -56.5 -57.333 -91.5 -78s-70.833 -31 -107.5 -31c-37.333 0 -70.166 14.333 -98.499 43s-42.5 62 -42.5 100
c0 38.667 14.167 72.334 42.5 101.001s61.833 43 100.5 43c59.333 0 125 -36.667 197 -110c74.667 73.333 139.667 110 195 110c38.667 0 72.5 -14.167 101.5 -42.5s43.5 -62.166 43.5 -101.499zM799.998 301.998c0 26 -9.50098 48.333 -28.501 67s-41.833 28 -68.5 28
c-41.333 0 -93.666 -30 -156.999 -90c54.667 -62.667 107.667 -94 159 -94c25.333 0 47.5 8.66699 66.5 26s28.5 38.333 28.5 63zM477.997 306.998c-18.667 18 -34.167 32.333 -46.5 43s-28.833 21.167 -49.5 31.5s-40.667 15.5 -60 15.5
c-26.667 0 -49.667 -9.33301 -69 -28s-29 -41 -29 -67c0 -24.667 9.33301 -45.5 28 -62.5s40.667 -25.5 66 -25.5c54 0 107.333 31 160 93z" />
    <glyph glyph-name="integral" unicode="&#x222b;" horiz-adv-x="482" 
d="M451 708c0 -15.333 -4.67383 -28.166 -14.0068 -38.499s-21.666 -15.5 -36.999 -15.5c-10.667 0 -24.334 6.5 -41.001 19.5s-30.667 19.5 -42 19.5c-14 0 -22.167 -25.333 -24.5 -76s-2.16602 -83.334 0.500977 -98.001c-2.66699 -206.667 -9 -362.334 -19 -467.001
c-2 -26.667 -4.5 -49.667 -7.5 -69s-8.5 -41.666 -16.5 -66.999s-17.667 -46 -29 -62s-27.166 -29.667 -47.499 -41s-43.833 -17 -70.5 -17c-48 0 -72 17.333 -72 52c0 16 4.83301 29.333 14.5 40s22.5 16 38.5 16c8 0 21.667 -6.5 41 -19.5s33 -19.5 41 -19.5
c13.333 0 21.833 26.5 25.5 79.5s4.5 86.833 2.5 101.5c0.666992 26 2 75.333 4 148s4.33301 134.5 7 185.5s6.33398 99.833 11.001 146.5c2.66699 28 5.33398 50.5 8.00098 67.5s7.83398 37.5 15.501 61.5s16.834 42.833 27.501 56.5s25.834 25.5 45.501 35.5
s42.5 15 68.5 15c46.667 0 70 -18 70 -54z" />
    <glyph glyph-name="approxequal" unicode="&#x2248;" horiz-adv-x="1024" 
d="M819 400c-47.333 -44.667 -105.667 -67.001 -175 -67.001c-33.333 0 -81 10.667 -143 32s-110 32 -144 32c-29.333 0 -55.5 -6.66699 -78.5 -20s-47.5 -32.666 -73.5 -57.999v71c46 46 102.333 69 169 69c33.333 0 80.666 -10.667 141.999 -32s108.333 -32 141 -32
c30.667 0 58.334 6.5 83.001 19.5s51 31.833 79 56.5v-71zM818.999 225.999c-47.333 -44.667 -105.667 -67.001 -175 -67.001c-33.333 0 -81 10.667 -143 32s-110 32 -144 32c-29.333 0 -55.5 -6.66699 -78.5 -20s-47.5 -32.666 -73.5 -57.999v71c46 46 102.333 69 169 69
c33.333 0 80.666 -10.667 141.999 -32s108.333 -32 141 -32c30.667 0 58.334 6.5 83.001 19.5s51 31.833 79 56.5v-71z" />
    <glyph glyph-name="notequal" unicode="&#x2260;" horiz-adv-x="1024" 
d="M819 182h-391l-113 -112l-41 41l72 71h-141v64h205l122 123h-327v63h391l113 113l41 -41l-72 -72h141v-63h-205l-122 -123h327v-64z" />
    <glyph glyph-name="lessequal" unicode="&#x2264;" horiz-adv-x="1024" 
d="M819 120l-614 194v64l614 194v-63l-549 -163l549 -163v-63zM819 0h-614v56h614v-56z" />
    <glyph glyph-name="greaterequal" unicode="&#x2265;" horiz-adv-x="1024" 
d="M819 314l-614 -194v63l549 163l-549 163v63l614 -194v-64zM819 0h-614v56h614v-56z" />
    <glyph glyph-name="lozenge" unicode="&#x25ca;" horiz-adv-x="549" 
d="M514 401l-207 -401h-64l-207 401l207 394h64zM451 401l-176 335l-176 -335l176 -344z" />
    <glyph glyph-name="fi" unicode="&#xfb01;" horiz-adv-x="588" 
d="M647 739l-25 -94h-101l26 94h100zM582 512l-138 -512h-92l137 512h93zM465 739l-21.001 -74.999c-13.333 8 -32 12 -56 12c-14.667 0 -27.667 -2.83301 -39 -8.5s-20.333 -11.834 -27 -18.501s-13.167 -16.834 -19.5 -30.501s-10.833 -24.667 -13.5 -33
s-6.16699 -21.166 -10.5 -38.499s-7.16602 -29 -8.49902 -35h123l-17 -67h-123l-120 -445h-92l120 445h-103l18 67h102l15 58c4.66699 18 10 35 16 51s12.5 30.667 19.5 44s15.5 25.333 25.5 36s21.667 19.667 35 27s29.333 12.833 48 16.5s39.667 5.5 63 5.5
c21.333 0 43 -3.66699 65 -11z" />
    <glyph glyph-name="fl" unicode="&#xfb02;" horiz-adv-x="587" 
d="M643 739l-199 -739h-92l199 739h92zM465 739l-21.001 -74.999c-13.333 8 -32 12 -56 12c-14.667 0 -27.667 -2.83301 -39 -8.5s-20.333 -11.834 -27 -18.501s-13.167 -16.834 -19.5 -30.501s-10.833 -24.667 -13.5 -33s-6.16699 -21.166 -10.5 -38.499
s-7.16602 -29 -8.49902 -35h123l-17 -67h-123l-120 -445h-92l120 445h-103l18 67h102l15 58c4.66699 18 10 35 16 51s12.5 30.667 19.5 44s15.5 25.333 25.5 36s21.667 19.667 35 27s29.333 12.833 48 16.5s39.667 5.5 63 5.5c21.333 0 43 -3.66699 65 -11z" />
    <glyph glyph-name=".null" horiz-adv-x="0" 
 />
    <glyph glyph-name="nonmarkingreturn" horiz-adv-x="341" 
 />
  </font>
</defs>
</svg>
