<?xml version="1.0" encoding="utf-8"?>
<!-- Generator: Adobe Illustrator 19.1.0, SVG Export Plug-In . SVG Version: 6.00 Build 0)  -->
<svg version="1.1"
	 id="asterisk" xmlns:dc="http://purl.org/dc/elements/1.1/" xmlns:cc="http://creativecommons.org/ns#" xmlns:rdf="http://www.w3.org/1999/02/22-rdf-syntax-ns#" xmlns:svg="http://www.w3.org/2000/svg"
	 xmlns="http://www.w3.org/2000/svg" xmlns:xlink="http://www.w3.org/1999/xlink" x="0px" y="0px" viewBox="0 0 32 32"
	 style="enable-background:new 0 0 32 32;" xml:space="preserve">
<style type="text/css">
	.st0{fill:#D19E0F;}
</style>
<g id="g3065">
	<g id="text3035">
		<path id="path3063_1_" class="st0" d="M1,12.3l0.3-1c0.5-1.4,2-2.1,3.3-1.5l8.3,3.2c0.3,0.1,0.7-0.1,0.7-0.5l-0.7-9
			c-0.1-1.5,1-2.7,2.5-2.7H17c1.5,0,2.6,1.2,2.5,2.7l-0.7,9c0,0.4,0.3,0.6,0.7,0.5l8.3-3.2c1.3-0.5,2.8,0.2,3.3,1.5l0.3,1
			c0.4,1.3-0.3,2.8-1.7,3.2l-8.8,2.6c-0.3,0.1-0.5,0.5-0.2,0.8l6,7.1c0.9,1,0.8,2.6-0.2,3.5l-1.4,1.3c-1.2,1.1-3,0.8-3.8-0.6
			l-4.5-7.6c-0.2-0.3-0.7-0.3-0.9,0l-4.5,7.6c-0.8,1.4-2.7,1.6-3.8,0.6l-1.4-1.3c-1-0.9-1.1-2.4-0.2-3.5l6-7.1
			c0.2-0.3,0.1-0.7-0.2-0.8L3,15.5C1.3,15.1,0.5,13.6,1,12.3z"/>
	</g>
</g>
</svg>
